<?xml version="1.0" encoding="UTF-8" standalone="no"?>
<!-- Created with Inkscape (http://www.inkscape.org/) -->

<svg
   xmlns:dc="http://purl.org/dc/elements/1.1/"
   xmlns:cc="http://creativecommons.org/ns#"
   xmlns:rdf="http://www.w3.org/1999/02/22-rdf-syntax-ns#"
   xmlns:svg="http://www.w3.org/2000/svg"
   xmlns="http://www.w3.org/2000/svg"
   xmlns:sodipodi="http://sodipodi.sourceforge.net/DTD/sodipodi-0.dtd"
   xmlns:inkscape="http://www.inkscape.org/namespaces/inkscape"
   id="svg2"
   version="1.1"
   inkscape:version="0.48.4 r9939"
   width="256"
   height="256"
   sodipodi:docname="FishTales-med.jpg"
   inkscape:export-filename="/home/piggz/nficon1.png"
   inkscape:export-xdpi="22.5"
   inkscape:export-ydpi="22.5">
  <metadata
     id="metadata8">
    <rdf:RDF>
      <cc:Work
         rdf:about="">
        <dc:format>image/svg+xml</dc:format>
        <dc:type
           rdf:resource="http://purl.org/dc/dcmitype/StillImage" />
        <dc:title></dc:title>
      </cc:Work>
    </rdf:RDF>
  </metadata>
  <defs
     id="defs6" />
  <sodipodi:namedview
     pagecolor="#ffffff"
     bordercolor="#666666"
     borderopacity="1"
     objecttolerance="10"
     gridtolerance="10"
     guidetolerance="10"
     inkscape:pageopacity="0"
     inkscape:pageshadow="2"
     inkscape:window-width="1568"
     inkscape:window-height="880"
     id="namedview4"
     showgrid="false"
     inkscape:zoom="2.4127988"
     inkscape:cx="140.88566"
     inkscape:cy="144.95749"
     inkscape:window-x="30"
     inkscape:window-y="-3"
     inkscape:window-maximized="1"
     inkscape:current-layer="svg2" />
  <g
     id="g3076"
     transform="matrix(0.85621963,0,0,0.95326268,170.43648,-366.51174)">
    <path
       style="fill:#c6d3da"
       d="m -122.45128,567.66046 c -9.32904,-3.29673 -16.23455,-14.68746 -14.54517,-23.99243 2.15131,-11.84917 11.94737,-20.04203 22.87676,-19.13278 3.9219,0.32627 3.98103,0.39336 6.74527,7.65257 2.72217,7.14874 8.40109,16.77225 11.33368,19.20609 6.06608,5.03439 -7.86389,18.17682 -18.96368,17.89155 -1.68952,-0.0434 -5.04061,-0.77467 -7.44686,-1.625 z m 133.16104,0.30737 c -7.72501,-2.51356 -19.28604,-10.3434 -19.28604,-13.06169 0,-0.70426 1.74119,-3.47676 3.86931,-6.1611 4.74355,-5.98335 8.37804,-13.0562 10.75179,-20.92334 2.54684,-8.44078 2.32324,-24.7159 -0.45864,-33.38364 -1.13438,-3.53449 -1.85145,-6.76786 -1.59348,-7.18526 0.25797,-0.4174 3.04798,-1.73073 6.20003,-2.91851 4.78205,-1.802 7.22121,-2.08617 14.73099,-1.7162 10.95684,0.53979 18.57726,3.24104 25.84367,9.16094 25.54387,20.81042 20.70071,59.86335 -9.16406,73.89459 -5.88733,2.76602 -7.86573,3.16952 -16.67961,3.4018 -6.44195,0.16978 -11.49935,-0.22431 -14.21396,-1.10759 z m -181.35669,-0.91402 c -10.4481,-2.94687 -20.885,-12.06217 -25.72755,-22.46973 -2.34335,-5.0363 -2.66373,-6.97418 -2.68156,-16.21967 -0.0187,-9.67866 0.22089,-11.00845 3.0623,-17 3.68694,-7.77448 11.74398,-16.06348 18.90596,-19.45028 5.32462,-2.51793 15.00804,-4.68014 17.19741,-3.84001 0.96181,0.36908 1.31409,3.13252 1.31409,10.30818 0,15.27536 3.57901,24.32321 14.02354,35.45202 4.70758,5.01599 4.72076,5.04976 4.70158,12.04537 -0.0129,4.7099 0.5458,8.10794 1.70018,10.34026 0.94567,1.82873 1.46739,3.98172 1.15937,4.7844 -0.30802,0.80269 -3.15307,2.65055 -6.32235,4.10637 -6.82982,3.13731 -19.82378,4.06104 -27.33297,1.94309 z m 104.18298,-0.26995 c -13.79837,-3.71085 -28.84831,-15.98403 -34.95045,-28.502 -8.95401,-18.3683 -8.01294,-39.3036 2.50591,-55.7472 10.09989,-15.78868 28.87795,-26.20848 47.13143,-26.15289 25.03027,0.0762 48.51252,17.88561 54.64953,41.4472 2.03874,7.82724 2.00814,22.63341 -0.0612,29.60394 -2.61531,8.80971 -7.22716,16.909 -13.24774,23.26554 -11.54262,12.18675 -24.35251,17.71044 -40.81614,17.60015 -5.40302,-0.0362 -12.24813,-0.71783 -15.21135,-1.51474 z m 131.91742,-2.00292 c -4.21142,-1.82667 -7.02975,-4.25991 -7.02975,-6.0692 0,-0.73849 1.60125,-3.57152 3.55833,-6.29564 4.47442,-6.22806 7.52356,-14.72287 8.19877,-22.84149 0.64233,-7.72328 2.17095,-8.96935 8.91877,-7.27023 12.58488,3.16891 20.5207,15.34097 17.47933,26.81003 -2.84814,10.74039 -11.13043,17.28201 -21.79053,17.21086 -3.22557,-0.0215 -7.42628,-0.71648 -9.33492,-1.54433 z m -209.24278,-34.64728 c -2.14819,-2.32691 -5.56657,-7.59055 -7.59639,-11.69697 -3.5493,-7.18039 -3.69058,-7.87019 -3.69058,-18.01924 0,-9.46185 0.28945,-11.17344 2.79929,-16.55304 4.16217,-8.9212 7.37907,-13.08869 13.86896,-17.96723 6.92612,-5.20645 14.2594,-8.14243 22.73182,-9.10098 l 6.17303,-0.69839 1.20823,3.3833 c 0.66453,1.86081 2.67309,6.25977 4.46345,9.77545 1.79037,3.51568 3.25522,6.90541 3.25522,7.53273 0,0.62731 -1.5389,4.05084 -3.41979,7.60784 -4.49352,8.49786 -6.58021,16.95268 -6.58021,26.66162 0,4.81551 -0.46905,8.37471 -1.2,9.10566 -0.66,0.66 -3.0225,1.20988 -5.25,1.22196 -5.57668,0.0302 -11.2275,2.89226 -16.50821,8.36105 -2.45201,2.53934 -4.88364,4.61699 -5.40361,4.61699 -0.51997,0 -2.70301,-1.90384 -4.85121,-4.23075 z M -2.35046,478.18834 c -3.58412,-4.83508 -8.75062,-9.98822 -16.86755,-16.82393 -2.92072,-2.4597 -2.96243,-2.63299 -2.58727,-10.75006 0.35363,-7.65135 0.54996,-8.29239 2.7054,-8.83337 3.16827,-0.79519 13.75031,2.03773 19.6925,5.27187 9.41657,5.12514 18.16047,17.13966 19.47996,26.76634 0.58647,4.2788 0.50286,4.46406 -2.26998,5.0298 -2.89747,0.59118 -12.87759,3.3896 -15.04272,4.21799 -0.64012,0.2449 -2.93977,-1.95048 -5.11034,-4.87864 z m -96.62427,-7.71172 c -2.33153,-2.57631 -5.36305,-10.83362 -6.147,-16.7433 -2.08439,-15.7129 7.92764,-33.46374 22.77019,-40.37041 15.78471,-7.34509 31.72137,-4.783 44.31098,7.12373 7.85955,7.43323 11.68953,15.77376 12.27795,26.73769 0.31833,5.93135 0.0931,8.57964 -0.77518,9.11629 -0.67311,0.41601 -3.99464,-0.15486 -7.38117,-1.2686 -9.42445,-3.09945 -25.75898,-2.99302 -35.60705,0.23201 -7.51834,2.46209 -19.50378,9.69662 -23.97458,14.47129 -2.89578,3.0926 -3.26701,3.14016 -5.47414,0.7013 z m -36.40296,-12.99442 c -2.09151,-1.30305 -3.32517,-8.92881 -2.16259,-13.36779 3.22165,-12.3009 15.23939,-19.36301 26.464,-15.55131 4.567,1.55088 4.54894,1.42805 2.24902,15.30131 l -1.32624,8 -6.96234,1.15944 c -3.82929,0.6377 -9.28162,2.0407 -12.11629,3.1178 -2.83467,1.07709 -5.60018,1.68034 -6.14556,1.34055 z"
       id="path3086"
       inkscape:connector-curvature="0" />
    <path
       style="fill:#b1c7d4"
       d="m -119.23604,567.3913 c -5.0743,-1.18416 -9.59461,-4.31273 -12.78031,-8.84543 -4.00314,-5.69577 -4.76423,-14.90052 -1.72467,-20.85855 3.89448,-7.6338 12.69213,-12.98449 19.94751,-12.13198 2.26112,0.26569 3.01867,1.32889 5.39684,7.57426 2.56258,6.72968 9.48635,18.29229 11.81554,19.73181 2.94053,1.81735 -1.05789,8.31598 -7.3105,11.8817 -4.74529,2.70614 -10.69556,3.73306 -15.34441,2.64819 z M 13.16964,567.342 c -7.98013,-2.01526 -19.74592,-9.49797 -19.74592,-12.55783 0,-0.77135 1.60725,-3.50806 3.57166,-6.08159 11.29748,-14.80049 15.36699,-35.28376 10.49833,-52.84168 -1.2469,-4.49671 -1.59412,-7.36495 -0.981,-8.10372 1.65212,-1.99068 10.15507,-3.82043 17.51141,-3.76827 26.54869,0.18824 46.87628,25.30419 40.99099,50.64682 -2.10646,9.07064 -4.7898,14.03677 -11.23616,20.79511 -7.75029,8.12537 -16.67265,12.0863 -28.22179,12.52859 -4.74839,0.18184 -10.32277,-0.096 -12.38752,-0.61742 z m -182.81657,-1.34496 c -10.69163,-2.88277 -21.93627,-12.97064 -26.06763,-23.38597 -3.18765,-8.03623 -3.13318,-20.34408 0.12723,-28.74666 4.73071,-12.19178 19.44504,-23.32653 31.49436,-23.83268 l 3.98331,-0.16732 -0.32037,6.67215 c -0.66361,13.82057 4.15194,26.63199 13.83569,36.80887 5.6401,5.92732 5.71775,6.08897 5.25216,10.93444 -0.30053,3.12769 0.16531,6.94616 1.27958,10.48874 2.1899,6.96223 1.56781,7.87253 -7.23882,10.59263 -7.26527,2.24401 -15.51086,2.47862 -22.34551,0.6358 z m 104.3352,-0.17422 c -6.85861,-1.84711 -14.70853,-5.83758 -20.11353,-10.22462 -6.11836,-4.96604 -7.87504,-6.91926 -12.31452,-13.69226 -11.08388,-16.90992 -11.10327,-41.01058 -0.0467,-58.08306 19.03958,-29.39912 61.15048,-33.91105 85.34905,-9.14464 18.25103,18.67931 20.85778,46.88017 6.35049,68.70225 -7.41383,11.15199 -18.62723,19.03257 -31.94941,22.45347 -7.32935,1.88205 -20.26524,1.87677 -27.27535,-0.0111 z m 131.23545,-2.32189 c -6.93578,-3.15502 -7.18178,-4.15891 -2.64914,-10.81067 4.05101,-5.94496 8.14914,-16.33937 8.14914,-20.6693 0,-1.3236 0.28125,-3.8128 0.625,-5.53155 0.5406,-2.703 1.047,-3.12368 3.75,-3.11523 5.15837,0.0161 13.19127,4.36993 15.98609,8.6644 5.524,8.48811 5.38692,17.23223 -0.39529,25.21434 -5.40173,7.45688 -16.70941,10.2312 -25.4658,6.24801 z m -209.46969,-34.88652 c -1.71341,-2.0625 -4.55867,-6.6678 -6.3228,-10.234 -3.04897,-6.16351 -3.20751,-7.05323 -3.20751,-18 0,-10.70658 0.20615,-11.93772 2.93296,-17.516 3.40004,-6.95551 12.25286,-16.27875 18.46825,-19.4496 4.0236,-2.05269 15.34838,-4.99374 19.38017,-5.03304 0.97977,-0.01 2.03362,0.77014 2.3419,1.73264 0.30828,0.9625 2.14253,5.06064 4.07611,9.10697 l 3.5156,7.35698 -3.57696,7.64302 c -4.14325,8.85307 -6.63803,19.59415 -6.63803,28.57958 l 0,6.30579 -5.14507,0.68252 c -6.56806,0.87128 -11.33767,3.35449 -16.30788,8.49041 -2.17412,2.2466 -4.50386,4.08473 -5.17719,4.08473 -0.67334,0 -2.62614,-1.6875 -4.33955,-3.75 z m 141.2345,-53.10479 c -3.45016,-4.89232 -7.30643,-8.66333 -16.58787,-16.22112 -0.45268,-0.36862 -0.50215,-3.92695 -0.10993,-7.9074 l 0.71314,-7.23719 5.10992,0.66577 c 7.19392,0.93729 14.7065,4.62953 20.55984,10.10465 5.32624,4.98207 11.05484,15.02502 11.04303,19.3598 -0.006,2.36599 -0.59091,2.73349 -6.75,4.24424 -3.70862,0.90968 -7.434,1.93332 -8.27863,2.27475 -1.08257,0.43762 -2.76425,-1.12132 -5.6995,-5.2835 z m -97.56506,-9.93759 c -0.83458,-2.08581 -2.05286,-6.514 -2.70729,-9.84041 -1.19788,-6.08874 -0.34768,-12.12273 2.90501,-20.61721 1.14238,-2.98335 3.54125,-3.65505 4.46416,-1.25 0.4873,1.26989 3.92133,1.5 22.38474,1.5 19.75523,0 21.95414,-0.16934 23.3487,-1.79807 0.84675,-0.98893 1.38402,-2.26467 1.19392,-2.83496 -0.1901,-0.5703 0.67961,-0.92367 1.93269,-0.78527 1.25307,0.1384 2.61582,0.28913 3.02832,0.33497 0.4125,0.0458 0.6375,0.62538 0.5,1.28788 -0.1375,0.6625 0.2,1.24094 0.75,1.28543 0.55,0.0445 1.9,0.58307 3,1.19684 1.1,0.61378 2.32459,1.19455 2.7213,1.2906 4.78847,1.1594 6.89473,2.78138 7.78823,5.99752 1.00886,3.6314 1.37063,13.02506 0.50163,13.02506 -0.26887,0 -3.98137,-0.95988 -8.25,-2.13306 -6.50017,-1.7865 -9.46714,-2.0434 -18.26116,-1.58121 -14.74878,0.77517 -26.49491,5.54644 -37.10647,15.07264 -2.2311,2.00289 -4.646,3.64163 -5.36646,3.64163 -0.72045,0 -1.99275,-1.70657 -2.82732,-3.79238 z m -35.03308,-10.87429 c -1.22612,-1.22612 -0.68448,-9.35494 0.87147,-13.07885 2.69659,-6.45384 3.90413,-7.19893 10.81539,-6.67334 3.38056,0.25709 7.65573,0.53117 9.50038,0.60908 3.27368,0.13826 3.33973,0.2274 2.76101,3.72572 -0.3261,1.97123 -0.59786,5.2096 -0.60391,7.19638 l -0.011,3.61232 -5.51776,0.6485 c -3.03476,0.35668 -7.87226,1.54341 -10.75,2.63718 -5.82385,2.21353 -6.11966,2.26892 -7.06557,1.32301 z"
       id="path3084"
       inkscape:connector-curvature="0" />
    <path
       style="fill:#a3bdca"
       d="m 15.42372,567.32263 c -6.22039,-1.29245 -15.93573,-6.23792 -19.44016,-9.89576 l -2.92112,-3.04899 2.05458,-2.25674 C 7.24293,538.80212 13.08066,515.62982 8.9623,497.16362 c -0.94459,-4.23543 -1.46379,-8.1112 -1.15377,-8.61282 1.26449,-2.046 9.84704,-3.4535 17.89731,-2.93509 13.43858,0.86541 22.4368,5.35499 30.66111,15.29806 6.18322,7.47543 8.46247,14.15937 8.50826,24.95064 0.0465,10.96544 -1.88046,17.14588 -7.89192,25.31188 -9.09285,12.35177 -26.76957,19.21936 -41.55957,16.14634 z m -181.7303,-0.99264 c -24.53109,-4.95551 -38.02579,-30.99792 -27.82011,-53.68795 4.76473,-10.59331 17.03105,-20.03874 28.30041,-21.79216 l 4.25,-0.66127 0.0148,6.8379 c 0.0311,14.39419 4.58146,25.96635 14.11376,35.89324 l 5.87146,6.11452 0,6.64483 c 0,3.83943 0.69591,8.38409 1.64832,10.76439 1.90047,4.74975 1.88053,4.77501 -6.14832,7.78818 -6.2364,2.34048 -14.69069,3.21737 -20.2303,2.09832 z m 43.7303,-0.55988 c -13.53646,-5.86331 -16.88241,-22.06873 -6.81222,-32.9936 4.36619,-4.73675 9.18677,-6.78738 14.68004,-6.24477 3.12858,0.30904 3.52364,0.76434 5.56139,6.40946 2.43757,6.75274 4.84085,10.95562 9.97333,17.44152 3.18211,4.02123 3.34784,4.56243 2.11974,6.92199 -4.39654,8.44719 -16.38447,12.42343 -25.52228,8.4654 z m 60.5,0.21002 c -18.38373,-3.64101 -34.47318,-17.74153 -40.63947,-35.61572 -3.2292,-9.36048 -3.24008,-23.86368 -0.0251,-33.5 2.5972,-7.78471 3.5378,-9.09608 10.5044,-14.64505 5.50236,-4.38269 6.6602,-4.69971 6.6602,-1.82357 0,2.83803 2.6965,3.56545 6.38056,1.72124 2.65719,-1.33016 7.80722,-1.5326 34.75433,-1.36615 l 31.63489,0.1954 4.09535,2.71018 c 6.86301,4.54175 11.13484,15.93903 11.13484,29.70795 0,14.79155 -5.23763,27.23315 -16,38.00683 -12.8749,12.88842 -30.45304,18.18321 -48.5,14.60889 z m 131.34264,-1.59041 c -4.45651,-1.34632 -8.84264,-4.36506 -8.84264,-6.08593 0,-0.89617 0.85051,-2.39911 1.89003,-3.33986 4.55797,-4.12491 10.03379,-18.77161 10.08552,-26.97675 l 0.0245,-3.87723 4.97542,0.47808 c 7.06469,0.67882 12.5645,4.59123 15.59064,11.09075 1.32792,2.8521 2.41629,6.53563 2.41859,8.18563 0.0191,13.67157 -13.55372,24.32823 -26.14201,20.52531 z m -213.71345,-38.27531 c -4.55027,-6.06995 -6.5019,-10.41141 -8.065,-17.94081 -1.33783,-6.44429 -0.17055,-16.52001 2.58134,-22.28148 2.08909,-4.37383 -0.0656,-3.91148 23.10447,-4.95769 7.23773,-0.32681 12.25,-0.1746 12.25,0.372 0,0.50882 1.2375,1.06753 2.75,1.24156 2.34518,0.26984 2.73565,0.75804 2.6525,3.31642 -0.0536,1.65 -0.91859,5.925 -1.92214,9.5 -1.03436,3.68475 -1.85836,10.04482 -1.9025,14.68447 l -0.0779,8.18447 -5.82149,1.02815 c -6.58993,1.16387 -10.6354,3.37422 -15.62468,8.53694 -1.89535,1.96128 -4.01827,3.56597 -4.71756,3.56597 -0.69929,0 -3.04246,-2.3625 -5.20704,-5.25 z m 33.87081,-46.59934 c 0,-0.39878 0.9,-0.79285 2,-0.87571 1.1,-0.0829 2,0.17562 2,0.57439 0,0.39878 -0.9,0.79285 -2,0.87571 -1.1,0.0829 -2,-0.17562 -2,-0.57439 z m 93,-0.92123 c 0,-1.83126 3.30854,-2.34946 4.89183,-0.76617 0.90392,0.90391 1.07102,1.53674 0.40579,1.53674 -0.62202,0 -1.32027,-0.5625 -1.55167,-1.25 -0.32799,-0.97451 -0.78714,-0.94752 -2.08333,0.12244 -0.91444,0.75485 -1.66262,0.91549 -1.66262,0.35699 z"
       id="path3082"
       inkscape:connector-curvature="0" />
    <path
       style="fill:#9ab6c4"
       d="m -119.34069,566.40691 c -14.96154,-3.64731 -20.3652,-22.56569 -9.56041,-33.47132 3.15089,-3.18029 6.94404,-4.98034 12.65277,-6.00438 3.43293,-0.61581 3.89015,-0.44877 4.43082,1.61875 1.18305,4.52397 8.1783,17.38514 11.6795,21.47341 1.95895,2.28743 3.56173,4.63428 3.56173,5.21521 0,1.63475 -5.99328,8.07271 -8.89844,9.55867 -3.5713,1.82668 -9.94201,2.56624 -13.86597,1.60966 z m 131.39014,-0.49607 c -5.27238,-1.51717 -15.53756,-7.45955 -17.06267,-9.87735 -0.69291,-1.09849 0.1361,-2.90444 3.13582,-6.83117 2.24276,-2.93585 5.23208,-7.64414 6.64292,-10.46287 2.75143,-5.49709 6.64839,-19.11082 6.67351,-23.31338 0.0112,-1.86655 0.25441,-2.18408 0.89645,-1.17019 0.70235,1.10913 3.99644,1.33898 16.23469,1.13283 21.68661,-0.3653 22.66817,-0.43892 24.03161,-1.80236 1.46105,-1.46105 5.20663,-1.6534 4.32194,-0.22194 -0.57082,0.9236 1.37803,1.4357 4.16446,1.09429 2.11477,-0.25911 3.59547,6.85462 3.12356,15.00653 -0.37358,6.45342 -1.09894,9.14368 -4.1056,15.22726 -6.8752,13.91101 -18.87158,21.65504 -34.50857,22.27633 -5.46505,0.21714 -10.47703,-0.17425 -13.54812,-1.05798 z m -181.69638,-0.85522 c -13.85345,-3.91283 -24.19703,-15.6234 -26.88305,-30.43586 -1.23682,-6.82069 -0.0291,-14.2974 2.84463,-17.61034 0.88499,-1.02024 1.38407,-2.09785 1.10907,-2.39469 -0.275,-0.29684 1.18777,-0.5871 3.2506,-0.64502 2.06283,-0.0579 3.75033,0.25876 3.75,0.70372 -3.3e-4,0.44496 0.4494,0.5309 0.9994,0.19098 0.55,-0.33992 1,-0.23345 1,0.2366 0,1.1478 6.70509,1.5496 7.38913,0.44279 0.2968,-0.48022 2.69316,-0.51886 5.32525,-0.0859 6.46208,1.06304 9.28562,1.07677 9.28562,0.0451 0,-0.47373 -1.0125,-0.76067 -2.25,-0.63765 -1.2375,0.12303 -1.4625,0.0293 -0.5,-0.20822 0.9625,-0.23747 1.75,-0.85052 1.75,-1.36227 0,-0.51175 0.45,-0.93045 1,-0.93045 0.55,0 1,0.63601 1,1.41336 0,2.77799 7.59257,14.65237 12.75,19.94034 5.1087,5.238 5.25118,5.54119 5.29389,11.26459 0.0241,3.23494 0.69237,7.68171 1.48495,9.88171 0.79257,2.2 1.44782,4.50709 1.4561,5.12686 0.008,0.61977 -2.34744,2.15402 -5.23494,3.40944 -6.3527,2.76202 -18.1225,3.54676 -24.82065,1.65491 z m 104.18298,-0.27176 c -13.21374,-3.55362 -26.56391,-14.16133 -32.91041,-26.1498 -6.75907,-12.76779 -8.51627,-34.31587 -2.15807,-26.46383 0.94597,1.16822 3.23559,2.40559 5.08804,2.7497 1.85246,0.34412 23.21703,0.62842 47.47682,0.63179 46.3372,0.006 49.14161,-0.24791 47.84314,-4.33903 -0.29326,-0.92398 -0.0649,-1.96939 0.50747,-2.32314 1.35916,-0.84 1.38096,9.37858 0.0354,16.58837 -2.45582,13.15875 -14.62617,28.98187 -27.00087,35.10483 -11.47489,5.67773 -27.10942,7.36703 -38.88152,4.20111 z m 131.26104,-2.28257 c -2.26965,-1.06074 -4.42108,-2.40505 -4.78096,-2.98735 -0.35988,-0.5823 0.87905,-3.21665 2.75316,-5.85413 5.21815,-7.34357 6.75079,-10.934 8.63711,-20.23362 1.72683,-8.51333 1.75301,-8.55996 4.62699,-8.24021 5.62994,0.62637 11.49563,4.27744 14.57563,9.07254 2.65522,4.13376 2.92295,5.28338 2.61185,11.21527 -0.39401,7.51268 -2.79859,11.98251 -8.57556,15.94095 -4.7585,3.26058 -14.10209,3.77208 -19.84822,1.08655 z m -209.86126,-37.25292 c -2.02153,-2.81382 -3.92262,-6.63882 -4.22465,-8.5 -0.5201,-3.20499 -0.39679,-3.37869 2.3317,-3.28428 3.71301,0.12847 8.76856,1.65479 5.96417,1.80064 -1.05416,0.0548 -1.72916,0.24961 -1.5,0.43286 0.22917,0.18325 6.37498,0.0708 13.65735,-0.25 9.81231,-0.43218 13.35912,-0.27337 13.69809,0.61333 0.29527,0.77239 -1.20789,1.43969 -4.24068,1.88255 -6.47238,0.94514 -13.55347,4.70924 -16.75477,8.90636 -1.47438,1.93302 -3.26007,3.51458 -3.9682,3.51458 -0.70813,0 -2.94149,-2.30222 -4.96301,-5.11604 z m 66.23789,-10.54624 c 0.6875,-0.27741 1.8125,-0.27741 2.5,0 0.6875,0.27741 0.125,0.50439 -1.25,0.50439 -1.375,0 -1.9375,-0.22698 -1.25,-0.50439 z m 32,0 c 0.6875,-0.27741 1.8125,-0.27741 2.5,0 0.6875,0.27741 0.125,0.50439 -1.25,0.50439 -1.375,0 -1.9375,-0.22698 -1.25,-0.50439 z m 16,0 c 0.6875,-0.27741 1.8125,-0.27741 2.5,0 0.6875,0.27741 0.125,0.50439 -1.25,0.50439 -1.375,0 -1.9375,-0.22698 -1.25,-0.50439 z"
       id="path3080"
       inkscape:connector-curvature="0" />
    <path
       style="fill:#92afbc"
       d="m 15.60001,566.29441 c -5.69838,-1.1214 -13.86096,-5.005 -18.00773,-8.56775 l -3.33145,-2.86225 2.64701,-3 c 1.45585,-1.65 4.0104,-4.94342 5.67676,-7.31872 2.90311,-4.13819 3.10898,-4.24704 4.92467,-2.60386 1.80055,1.62948 2.01525,1.5945 4.31213,-0.70238 2.40271,-2.4027 2.53654,-2.41653 22.25978,-2.29959 12.03553,0.0714 20.35426,-0.28013 21.14315,-0.89335 0.96109,-0.74708 1.44838,-0.44597 1.86664,1.15345 0.671,2.56594 2.33275,2.89679 2.33275,0.46445 0,-1.24361 0.2974,-1.4026 1.10779,-0.59221 1.65167,1.65167 -4.42803,12.41091 -9.82309,17.3839 -5.17924,4.77406 -12.75931,8.48115 -20.24435,9.90066 -6.06125,1.14949 -8.76368,1.13815 -14.86406,-0.0623 z m 40.82371,-21.93 c -1.05696,-1.97494 -3,-2.75216 -3,-1.2 0,1.05167 2.17195,3.2 3.23518,3.2 0.45935,0 0.35352,-0.9 -0.23518,-2 z m -222.7303,20.99974 c -6.98894,-1.46827 -12.91281,-4.58714 -18.38398,-9.67901 -4.49438,-4.1828 -9.84961,-12.76309 -9.87423,-15.82073 -0.007,-0.81243 42.72431,-1.3689 50.03263,-0.65156 1.22429,0.12017 1.54485,1.54966 1.54764,6.90156 0.002,4.32563 0.60919,7.96091 1.68983,10.12146 0.92747,1.85431 1.45998,3.73768 1.18335,4.18527 -0.94913,1.53573 -11.50783,4.93079 -16.73559,5.38119 -2.87614,0.24779 -7.13298,0.0506 -9.45965,-0.43818 z m 43.11421,-0.85735 c -6.23523,-2.91562 -9.67955,-8.08145 -10.20174,-15.30071 -0.31208,-4.31448 0.0602,-7.05272 1.34669,-9.90568 1.74555,-3.87093 1.80516,-3.90414 3.26555,-1.81913 1.35681,1.93711 2.18642,2.08332 9.43864,1.6635 4.55056,-0.26343 8.26276,-0.96457 8.67983,-1.63941 0.47957,-0.77595 1.21222,-0.23231 2.14274,1.58996 0.7777,1.52299 3.22083,5.18974 5.42919,8.14833 2.20835,2.95859 4.44084,5.96115 4.96109,6.67235 1.50582,2.05851 -0.91698,6.07 -5.49638,9.10051 -5.46535,3.61679 -13.67987,4.24248 -19.56561,1.49028 z m 13.61609,-21.14239 c 0,-0.55 -0.45,-1 -1,-1 -0.55,0 -1,0.45 -1,1 0,0.55 0.45,1 1,1 0.55,0 1,-0.45 1,-1 z m 46.68863,21.45778 c -11.92317,-2.37065 -26.47485,-12.29816 -32.10257,-21.90115 -2.75696,-4.70439 -3.5692,-8.43768 -1.13784,-5.2298 1.29409,1.70738 3.53134,1.82068 34.2182,1.73283 18.05847,-0.0517 35.64608,-0.37342 39.08358,-0.71493 5.9115,-0.58729 6.25,-0.50512 6.25,1.51718 0,1.17595 0.54,2.13809 1.2,2.13809 0.93333,0 0.93333,0.26667 0,1.2 -0.66,0.66 -1.2,1.55243 -1.2,1.98318 0,0.43074 2.10551,-1.23426 4.6789,-3.7 5.72576,-5.48625 8.15515,-6.01113 5.70766,-1.23318 -2.72161,5.3131 -15.32093,17.00419 -21.56161,20.00731 -11.42219,5.49656 -22.16087,6.78035 -35.13632,4.20047 z m 129.68474,-2.37562 c -5.50489,-2.49978 -5.91779,-3.48668 -3.06518,-7.32628 3.09026,-4.15947 8.69181,-14.51439 8.6918,-16.06747 -1e-5,-0.8424 2.97428,-1.17915 10.21551,-1.15661 l 10.21552,0.0318 0.65672,3.21103 c 0.90706,4.43503 -0.62549,11.76745 -3.22152,15.41324 -2.61032,3.66587 -11.03523,7.79723 -15.86622,7.7804 -1.925,-0.007 -5.35698,-0.85545 -7.62663,-1.88611 z m -219.83066,-28.01306 c -1.00194,-1.62117 1.17528,-2.11382 2.46643,-0.55809 1.00476,1.21067 0.94352,1.48899 -0.32768,1.48899 -0.85988,0 -1.82232,-0.41891 -2.13875,-0.9309 z"
       id="path3078"
       inkscape:connector-curvature="0" />
  </g>
  <g
     id="g3154"
     transform="matrix(0.63465824,0,0,0.58739781,-61.290719,57.664129)">
    <g
       transform="translate(-213.0309,-41.797202)"
       id="g3128">
      <g
         id="g3088"
         transform="translate(73.214011,-189.35839)">
        <path
           sodipodi:nodetypes="csssssssssssscsssccccsssssscssssscccscccssccscscccccccscsssssscssssssssssssscccssccsscssccccccsccssccccscccssscccscscsscccccssccssccccsccccccssccccssssssssscsssccscscssssscccccsscscccsccscccccccccccccc"
           inkscape:connector-curvature="0"
           id="path3042"
           d="m 450.53141,258.87049 c -0.88048,0.27838 -1.93933,1.00886 -3.29396,2.12277 -3.89949,3.20654 -18.22606,14.29943 -26.19981,20.28955 -3.05382,2.29413 -8.03221,5.45513 -11.05851,7.04889 -6.25407,3.29363 -15.98548,9.8438 -17.39596,11.69056 -0.87015,1.1393 -0.67431,1.81671 2.46935,8.87335 2.79246,6.26835 9.11578,17.13333 12.34563,21.22286 1.05349,1.33387 1.76695,0.97858 9.44692,-4.78894 3.92274,-2.94591 9.13176,-6.57664 11.57185,-8.08863 2.44011,-1.51201 6.77976,-4.94092 9.64945,-7.61674 2.8697,-2.67583 9.08454,-7.27259 13.80886,-10.1932 2.16643,-1.3393 7.42816,-4.21146 8.08204,-5.68684 0.61035,-1.37714 -3.7616,-2.23739 -4.59717,-3.34841 -1.09993,-1.46252 4.67661,-6.08678 5.2008,-7.43199 1.83269,-0.3631 5.88928,0.19303 4.17499,-3.31926 -1.10503,-2.26402 -2.59419,-4.83202 -4.37444,-7.48646 -2.03408,-3.03292 -4.47474,-7.18567 -5.4047,-9.21465 -1.44209,-3.14632 -2.47592,-4.44161 -4.06443,-4.15151 -0.11914,0.0217 -0.23513,0.0389 -0.36091,0.0786 z m -0.74811,7.13536 c 0.99889,-0.29351 1.25905,-6.6e-4 1.45201,1.03568 0.21499,1.15489 -0.36161,1.94822 -2.06874,2.88976 -3.33231,1.83791 -3.08944,3.2986 0.59339,3.66177 9.20179,0.90739 10.25106,1.73125 9.63796,7.39092 -0.25646,2.36752 -1.8516,4.02222 -2.86967,4.94193 -0.88123,0.79609 -2.17086,2.19695 -3.94133,2.85169 -2.651,0.98035 -3.34705,0.97053 -3.92839,-0.0985 -1.08341,-1.99223 -0.58681,-2.62022 3.16248,-3.89687 2.5429,-0.86589 3.70853,-1.74647 4.37574,-3.31287 1.19032,-2.79452 0.61593,-3.72975 -2.37259,-3.96341 -6.1691,-0.48232 -8.66945,-1.38383 -9.4807,-3.34251 -1.07816,-2.60305 0.93061,-6.2792 4.1828,-7.67165 0.52466,-0.22463 0.9241,-0.38816 1.25706,-0.48598 z m -10.58558,8.16535 c 2.67193,-0.58217 6.21401,9.40261 6.37577,17.99028 0.0852,4.52295 -2.8205,5.11746 -6.21327,1.27427 l -1.99112,-2.27027 0.97869,4.42617 c 0.87952,3.92456 0.84891,4.49764 -0.35382,4.9816 -0.9716,0.39096 -2.66393,-0.68178 -5.98458,-3.78613 -2.54793,-2.38195 -4.84193,-4.49111 -5.0889,-4.6706 -1.38096,-1.00358 -3.64669,-4.46471 -3.42371,-5.21896 0.54164,-1.83211 2.00172,-1.07629 6.49611,3.33004 2.54849,2.49853 4.7249,4.41653 4.81244,4.25362 0.0876,-0.16293 -0.51354,-2.17505 -1.32084,-4.48417 -1.76576,-5.05076 -2.16832,-8.59429 -1.00652,-8.84742 0.46937,-0.10228 2.87141,2.20509 5.32762,5.12227 l 4.45719,5.31193 -0.0762,-3.13822 c -0.12618,-4.37105 -1.84081,-9.92908 -3.46017,-11.22899 -1.61477,-1.29637 -1.41408,-2.63459 0.47129,-3.04539 z m -18.54931,14.51343 c 1.27861,-0.29072 2.24518,-0.0286 2.14806,1.0961 -0.0483,0.55911 -1.22437,1.6861 -2.60467,2.50281 -2.19979,1.30159 -2.45318,1.77392 -2.0583,3.89489 0.39534,2.12352 0.64954,2.32676 2.08731,1.71911 6.01887,-2.54378 8.10026,-0.9461 3.29606,2.51616 -3.01552,2.17319 -3.42225,3.76962 -1.51849,5.84513 1.15622,1.26053 1.282,1.24105 3.41571,-0.6382 2.1918,-1.93043 4.31132,-2.23506 4.6048,-0.65867 0.0826,0.44357 -1.00636,2.02885 -2.41493,3.52191 -4.03689,4.27897 -5.58208,4.19728 -8.32182,-0.44022 -2.75267,-4.65939 -4.88467,-12.14595 -4.24462,-14.84916 0.4765,-2.01251 3.47985,-4.02538 5.61089,-4.50986 z m -10.81528,7.28751 c 0.72582,-0.27481 1.43509,1.22003 4.09361,7.512 6.20098,14.67592 5.05272,18.82868 -2.66619,9.64766 -2.40372,-2.85906 -5.03701,-5.7922 -5.85273,-6.51898 -1.45308,-1.29467 -1.47485,-1.27713 -1.0845,0.81953 0.21912,1.17701 1.84834,4.7946 3.61754,8.03992 2.56835,4.71124 3.08473,6.14557 2.55965,7.10392 -1.02221,1.86573 -2.24599,0.76441 -4.71804,-4.22115 -3.7418,-7.54642 -6.01531,-14.21043 -5.29752,-15.52109 0.97007,-1.7713 5.94088,0.10759 9.26615,3.4953 l 2.85995,2.90281 -0.97706,-2.75634 c -2.40854,-6.74583 -3.01472,-9.31536 -2.33837,-10.06834 0.19358,-0.21551 0.37,-0.37183 0.53751,-0.43524 z m 60.83325,-0.0257 c -0.0626,0.006 -0.15844,0.0407 -0.27125,0.0857 -0.67671,0.2696 -2.19789,1.23485 -3.93062,2.50009 -2.3103,1.68697 -5.89543,4.09142 -7.97414,5.34293 -2.07871,1.25151 -3.82817,2.76093 -3.88023,3.36399 -0.12979,1.50255 3.25698,-0.24773 6.89056,-3.56921 1.53331,-1.40162 4.27424,-3.57331 6.08246,-4.82473 1.8082,-1.25141 3.23881,-2.53756 3.18236,-2.84077 -0.006,-0.0378 -0.0365,-0.0632 -0.0992,-0.0578 z m 2.28294,3.95643 c -0.39569,0.0862 -0.65351,0.52413 -0.57002,0.97254 0.0835,0.44839 0.28423,0.78641 0.44901,0.7505 0.16474,-0.0359 0.42255,-0.47382 0.57,-0.97252 0.14745,-0.49873 -0.0533,-0.83676 -0.44899,-0.75052 z m -1.87678,1.31028 c -0.48221,0.13208 -1.29925,0.59242 -2.49718,1.41895 -1.08461,0.74837 -1.7542,1.63262 -1.4892,1.96816 0.54296,0.68747 4.0819,-1.51425 4.45412,-2.77324 0.16034,-0.54234 0.014,-0.74598 -0.46774,-0.61387 z m -5.29493,4.30848 c -2.17993,0.54484 -8.64726,4.57516 -8.47416,5.50492 0.22464,1.20675 2.59698,0.32284 6.31601,-2.3836 1.92801,-1.40308 3.18635,-2.81592 2.79753,-3.12808 -0.10487,-0.0843 -0.32795,-0.071 -0.63938,0.007 z m -15.21124,4.32172 c -1.21948,0.36322 -3.73324,1.8832 -6.65407,4.12742 -2.64495,2.03226 -5.7452,4.23937 -6.88219,4.91943 -1.13696,0.68007 -1.99809,1.60786 -1.91854,2.03519 0.0796,0.42734 0.67774,0.6502 1.33116,0.50529 1.43216,-0.31826 14.00214,-9.62345 14.71651,-10.89468 0.39507,-0.703 0.13885,-0.91059 -0.59287,-0.69265 z m 25.56771,-5.41174 c -0.70569,0.16307 -2.44809,1.34198 -7.09493,4.48857 -7.76463,5.25777 -9.00043,6.34424 -8.30973,7.21879 0.55284,0.69998 7.42729,-3.81098 11.45916,-7.50735 1.39545,-1.27931 3.00995,-2.43204 3.58845,-2.55809 0.57851,-0.12606 0.99317,-0.59815 0.9097,-1.04656 -0.08,-0.42924 -0.12926,-0.69326 -0.55265,-0.59536 z m -23.33398,9.69701 c -0.47029,0.0875 -1.00546,0.28637 -1.54007,0.62716 -5.24992,3.34738 -13.016,9.61561 -13.09831,10.5686 -0.12169,1.40943 1.90707,0.30611 8.8405,-4.84241 2.92167,-2.16952 5.84987,-4.32465 6.50954,-4.7852 1.51596,-1.05841 0.69911,-1.83111 -0.71166,-1.56815 z m 26.29064,-4.37629 c -2.32891,0.66484 -15.90522,10.08659 -15.72854,11.03564 0.19511,1.04801 1.76851,0.48746 5.12515,-1.77945 4.2669,-2.8817 11.3599,-8.90887 10.91009,-9.27001 -0.0479,-0.0384 -0.15145,-0.0306 -0.30669,0.0138 z m -22.58284,8.15479 c -1.59245,0.34696 -15.31109,10.9456 -15.39269,11.89035 -0.0662,0.76603 0.421,0.77052 1.75304,0.0417 6.28395,-3.4359 16.77738,-12.61622 13.63967,-11.93256 z m -26.35904,6.8567 c -2.37567,0.70542 -12.55886,8.364 -12.36096,9.42703 0.0731,0.39296 -0.21615,0.54756 -0.6414,0.35184 -0.4385,-0.20183 -0.60556,0.54437 -0.38526,1.72762 0.53794,2.88947 2.1257,2.34508 9.30217,-3.19329 4.56466,-3.52271 5.84598,-4.91257 5.76489,-6.29314 -0.062,-1.05578 -0.59292,-1.8877 -1.30906,-2.04773 -0.0835,-0.0187 -0.21202,-0.0195 -0.37036,0.0276 z m 49.615,-9.37878 c -1.88313,0.41031 -13.59069,9.11045 -13.42919,9.97792 0.20952,1.12545 3.40983,-0.59727 8.85472,-4.76599 5.0512,-3.8673 6.6182,-5.65721 4.57447,-5.21193 z m -20.44316,7.90068 c -1.08012,0.34184 -3.0625,1.7022 -6.36613,4.25026 -2.88287,2.22352 -6.12784,4.47352 -7.19589,5.01428 -1.09735,0.5556 -1.83838,1.51651 -1.71076,2.202 0.27709,1.48833 0.89137,1.15019 9.77191,-5.4165 3.67381,-2.71659 6.62295,-5.24393 6.55355,-5.61663 -0.0868,-0.46627 -0.40461,-0.63852 -1.05268,-0.43341 z m 24.65076,-4.52271 c -1.03669,0.32185 -2.95374,1.63144 -6.21051,4.13684 -2.82483,2.17308 -5.93273,4.39491 -6.90341,4.92406 -0.97069,0.52915 -1.69018,1.36336 -1.59784,1.85927 0.10817,0.58105 0.91894,0.5483 2.27902,-0.0989 3.07432,-1.463 13.59105,-9.58326 13.44298,-10.3786 -0.0854,-0.45843 -0.38822,-0.63576 -1.01024,-0.44267 z m -47.23923,14.18984 c -0.61738,0.0981 -2.46861,1.18636 -4.45661,2.64121 -2.27199,1.6627 -5.74042,4.14638 -7.71917,5.52598 -1.97873,1.37961 -3.52765,2.88462 -3.4414,3.34789 0.22737,1.22123 3.09642,-0.35491 9.5456,-5.20812 3.09149,-2.32643 5.93949,-4.28986 6.32118,-4.37302 0.76583,-0.16687 0.72329,-1.2829 -0.0703,-1.91998 -0.0348,-0.028 -0.0911,-0.028 -0.17932,-0.014 z m 25.24022,-4.91621 c -0.10955,0.0207 -0.22661,0.0619 -0.35615,0.10409 -0.62187,0.20236 -1.45466,0.65991 -2.42175,1.34951 -1.47733,1.05341 -4.93552,3.50869 -7.66496,5.46113 -2.72942,1.95242 -4.98386,4.00285 -5.03046,4.54248 -0.0465,0.53961 0.25853,0.89806 0.68027,0.80617 1.08159,-0.23566 14.62344,-10.06558 15.23777,-11.06128 0.58009,-0.94018 0.32235,-1.34434 -0.44472,-1.2021 z m 25.60929,-3.8832 c -0.8826,0.27346 -3.83314,2.14789 -7.12792,4.5488 -3.76546,2.7439 -7.17787,5.06339 -7.56852,5.1485 -0.76688,0.1671 -0.75248,1.28113 0.0231,1.90376 0.62427,0.50118 3.01223,-0.94739 9.30212,-5.6853 5.41012,-4.07519 6.48343,-5.21789 5.61426,-5.91569 -0.0365,-0.0293 -0.11694,-0.039 -0.24302,-2.2e-4 z m -47.82735,13.52264 c -2e-5,3e-5 5e-5,9e-5 0,9e-5 z m 25.27296,-5.21498 c -7.93047,4.53146 2.25577,1.73291 0.30196,-0.0393 -0.0447,-0.0361 -0.14968,-0.0132 -0.30195,0.0392 z m 18.40638,1.21217 c -322.28915,-22.44885 -161.14458,-11.22442 0,0 z m -15.52062,3.96494 c -337.27189,-32.68847 -168.63596,-16.34422 0,0 z"
           style="fill:#353535" />
        <path
           sodipodi:nodetypes="cssssssssscssssssssssssscsssscscssssccssssssssssssscssssssssssssssssssssscccsssscscsssssssssssssscsssssssssscsscsscsscscsssssccssccscssssccssssssccscssscssssssscccsssssssscsssssssssssscscssscssscsscssssssssscccsssssssssssscssssssscssscssssssscssscsssssssssssscssssssssssssssscssssssssssssssssssssscsssssssscssssssssscsssssssssssssss"
           inkscape:connector-curvature="0"
           id="path3027"
           d="m 370.06841,442.58549 c -0.92799,-1.11816 -0.98614,-2.51619 -0.22877,-5.5 0.89957,-3.54405 0.81331,-4.00074 -0.75573,-4.00074 -2.886,0 -4.26377,-2.60765 -3.82065,-7.23119 0.30123,-3.14305 -0.0662,-4.78004 -1.39317,-6.20737 -2.44153,-2.62613 -2.36278,-10.0392 0.15921,-14.98592 1.74937,-3.43129 1.80344,-4.07302 0.5,-5.93395 -2.10207,-3.00111 -1.80835,-6.61751 0.98571,-12.13647 1.77909,-3.51417 2.18861,-5.31706 1.5,-6.60374 -1.37613,-2.57131 -1.18472,-3.66385 1.02987,-5.87844 1.96944,-1.96944 1.96906,-1.98138 -0.0997,-3.08852 -1.53472,-0.82136 -1.94762,-1.78686 -1.58204,-3.6993 0.29145,-1.52463 -0.10209,-3.18466 -0.95785,-4.04042 -0.83696,-0.83696 -1.15635,-2.13956 -0.75362,-3.07362 0.38442,-0.89158 0.91122,-2.85749 1.17066,-4.36869 0.44396,-2.58589 0.29566,-2.71242 -2.51926,-2.14943 -4.2445,0.8489 -7.56998,-1.13339 -6.83227,-4.07266 0.54473,-2.17039 0.32374,-2.28934 -3.77406,-2.03141 -2.39397,0.15069 -5.42734,0.96961 -6.74083,1.81983 -7.24456,4.68941 -10.74712,2.78187 -11.07515,-6.03166 -0.20085,-5.39657 0.0919,-6.55911 2.22788,-8.84731 4.1246,-4.41854 9.21206,-6.43973 16.20918,-6.43973 12.91143,0 24.1818,4.47428 35.24994,13.99405 8.74015,7.51746 13.08969,9.0953 17.45438,6.33177 l 3.08322,-1.95216 c -18.7548,-31.07156 -50.25955,-67.047 -44.50319,-79.58243 0.81265,-1.76969 6.34438,16.28599 12.82826,26.42025 2.6823,4.19243 5.7676,8.19211 6.91603,6.85814 6.09685,-7.08182 34.96053,-22.20025 33.60359,-23.95715 -2.61377,-3.38416 -4.68247,-8.64747 -5.07191,-8.56486 -10.12137,2.27412 -20.94272,-1.20747 -17.33199,-9.79761 0.54744,-1.30239 0.26061,-1.7502 -1.1214,-1.75079 -3.70481,-0.002 -14.32629,-5.83771 -15.56259,-8.55111 -1.41602,-3.10782 0.39235,-7.34207 3.77909,-8.84867 1.64691,-0.73263 2.23915,-2.47537 3.176,-9.34573 2.08317,-15.27689 8.82652,-25.83596 22.14661,-34.67824 8.72958,-5.79496 15.85778,-7.77488 27.94868,-7.76301 l 9.65522,0.01 4.39597,-6.46363 c 5.24156,-7.70697 11.77104,-13.35832 15.43397,-13.35832 3.10317,0 6.16782,3.98857 5.37985,7.00176 -0.66865,2.55691 -0.26372,2.5134 3.60693,-0.38754 7.17581,-5.37808 18.72679,-9.98322 22.79787,-9.08906 2.9318,0.64393 4.14624,3.25737 2.70796,5.82743 -0.78598,1.40447 -0.34858,1.61444 3.08303,1.47997 9.71612,-0.38071 9.18554,6.74251 -1.05477,14.16055 -3.44818,2.49785 -3.62644,2.8323 -1.76854,3.31815 1.13639,0.29717 2.31287,1.48376 2.61442,2.63686 0.46739,1.78732 1.05231,2.00199 3.96578,1.45542 4.18042,-0.78425 7.33753,1.60682 7.33753,5.55716 0,2.82391 -3.61242,8.41599 -7.2784,11.26706 -1.22188,0.95027 -1.69124,1.73777 -1.04303,1.75 0.64822,0.0122 1.88238,0.72604 2.74258,1.58624 1.36762,1.36762 1.3873,1.90129 0.15675,4.25 -0.77399,1.4773 -3.00315,4.2198 -4.95367,6.09445 -3.81387,3.66551 -3.89536,5.44868 -0.2067,4.52289 2.55967,-0.64244 5.58247,1.69889 5.58247,4.32392 0,0.88683 -2.19841,3.73139 -4.88535,6.32126 -4.82289,4.64865 -4.87459,4.76456 -4.04355,9.06616 0.46299,2.39653 0.8614,5.97067 0.88535,7.94256 0.0348,2.86353 0.92851,4.48289 4.4398,8.04448 4.83773,4.90705 6.5926,9.53079 6.5926,17.37028 0,7.63786 -1.75613,12.50918 -5.84193,16.2049 -8.21959,7.43488 -10.8941,10.69073 -12.53868,15.26417 -1.58556,4.40927 -1.59949,5.1161 -0.16842,8.54113 2.25593,5.39922 2.02251,6.0896 -2.68982,7.95531 -2.51156,0.99439 -6.70428,4.22235 -10.25,7.89146 -6.93851,7.17995 -19.43846,16.76677 -29.59856,22.70059 -6.01499,3.51295 -20.74093,10.43615 -25.95814,12.20387 -0.87469,0.29637 -2.27454,3.10937 -3.19518,6.42072 -2.26358,8.14167 -9.58131,18.82021 -21.8526,31.88885 -7.73273,8.23518 -11.52521,13.23006 -14.8058,19.5 -6.39351,12.21939 -7.74797,13.929 -11.03537,13.929 -1.54521,0 -3.36939,-0.67467 -4.05374,-1.49926 z m 10.49939,-8.55997 c 6.40895,-12.11169 8.39883,-14.84964 18.85314,-25.94077 11.09237,-11.76805 16.65282,-19.40407 19.63009,-26.95746 2.90847,-7.37885 2.67171,-9.52355 -1.23323,-11.17122 -4.16804,-1.75868 -19.39832,-1.74671 -22.60736,0.0178 -1.33584,0.73451 -2.73417,0.91938 -3.22693,0.42663 -0.94977,-0.94978 2.0474,-7.43751 6.37295,-13.795 l 2.70745,-3.97928 -3.74805,-1.90889 c -2.06144,-1.04989 -7.05246,-4.55895 -11.09117,-7.7979 -8.61734,-6.91091 -13.00801,-9.30035 -20.83649,-11.33941 -10.8971,-2.83834 -20.53595,-1.45973 -26.05676,3.7268 -2.30584,2.16623 -3.25288,6.50737 -1.13391,5.19778 1.18535,-0.73259 1.14898,-0.60343 -1.08917,3.86712 -1.21205,2.421 -1.1955,2.98669 0.12603,4.30822 2.22872,2.22873 6.43747,0.80311 9.63826,-3.26474 4.75327,-6.04088 8.68505,-7.80341 17.4083,-7.80378 4.96368,-2.1e-4 8.17188,0.45921 9,1.28882 1.0502,1.05207 0.0464,1.16227 -5.45853,0.59922 -7.45825,-0.76284 -13.99633,0.98495 -17.28715,4.62126 -1.70485,1.88384 -1.70299,1.96406 0.0456,1.96406 1.00269,0 4.70975,-0.50269 8.2379,-1.11709 4.72481,-0.82279 6.70912,-0.82279 7.53191,0 0.82279,0.82276 0.46439,1.11706 -1.3604,1.11706 -3.00812,0 -6.9225,2.57662 -6.9225,4.5567 0,1.09737 1.4381,1.4433 6,1.4433 3.33333,0 6,0.44444 6,1 0,0.55 -0.50249,1 -1.11663,1 -0.65422,0 -0.88112,0.90061 -0.54792,2.17479 0.35847,1.37077 -0.0246,2.60864 -1.03614,3.3483 -1.89421,1.38507 -0.93578,3.47691 1.59304,3.47691 2.79268,0 3.27643,1.19348 1.10129,2.71701 -2.68139,1.87812 -2.50948,3.13637 0.58948,4.31459 l 2.58313,0.98211 -2.54135,3.02022 c -3.27948,3.89745 -2.53149,6.3241 1.66523,5.40234 l 3.03656,-0.66693 -4.05945,3.86533 c -4.20155,4.00064 -6.88135,10.60142 -5.62897,13.86507 0.65587,1.70917 3.54101,1.72136 8.86173,0.0375 1.92464,-0.60912 1.92901,-0.58407 0.11603,0.66492 -5.08021,3.49983 -8.01133,6.49972 -9.25201,9.46908 -1.75249,4.1943 -1.74946,9.76404 0.006,11.22103 1.0822,0.89814 1.96678,0.34597 4.20931,-2.62756 2.86639,-3.80073 5.64537,-6.37319 6.24119,-5.77736 0.17808,0.17807 -1.58652,3.12235 -3.92132,6.54284 -3.20954,4.70197 -4.26391,7.2179 -4.3222,10.31359 -0.1144,6.07522 2.50919,6.06362 6.46359,-0.0286 3.42678,-5.27933 3.36368,-4.27015 -0.37965,6.07223 -2.72201,7.52059 -2.5425,9.88044 0.71623,9.41548 1.49622,-0.21348 3.30329,-2.53392 6.12272,-7.8621 z m 47.63523,-64.99407 c 17.14544,-6.7581 36.73711,-18.99573 48.35793,-30.20601 5.76071,-5.55719 6.47331,-6.56479 4.00684,-5.66561 -23.80784,11.23415 -65.9018,11.21661 -74.16475,17.15062 -4.00388,2.87537 -9.56215,10.20866 -12.01493,15.85187 l -1.12032,2.57758 5.15,-1.39138 c 6.53877,-1.76659 15.15985,-1.09249 20.23204,1.58198 2.15488,1.13622 4.0138,2.08575 4.13094,2.11005 0.11714,0.0243 2.55715,-0.87979 5.42225,-2.0091 z m 59.86477,-40.68717 c 2.475,-0.88791 4.64374,-1.71578 4.81942,-1.83971 0.17569,-0.12393 -1.06129,-3.53159 -2.74883,-7.57258 -3.44774,-8.25592 -7.09238,-11.34162 -12.89966,-10.92132 -3.3135,0.23981 -7.14787,-2.06899 -7.19257,-4.33091 -0.0119,-0.60225 -1.47441,-1.77001 -3.25,-2.59501 -2.30811,-1.07242 -3.31856,-2.2839 -3.54478,-4.25 -0.22068,-1.91792 -0.88805,-2.75 -2.20564,-2.75 -1.76628,0 -5.22494,-1.92186 -5.22494,-1.92186 -2.80122,-1.08492 -3.75902,0.14006 -2.36842,-3.51836 -1.01674,-2.64957 8.81542,-8.52849 14.30641,-8.5542 2.28648,-0.0107 2.35016,-1.93986 0.21403,-6.48427 -4.34566,-1.48197 -5.43871,-19.89937 -9.09693,-19.94677 -4.65287,-0.0603 -71.04826,44.60736 -70.7718,48.4612 0.93749,13.06865 27.55485,41.20081 29.70262,40.93845 5.8101,-0.70973 54.91995,-10.08896 70.26109,-14.71466 z m 5,-17.85705 c 0,-0.72292 -0.81025,-1.00337 -2,-0.69224 -2.15303,0.56303 -2.36552,1.17364 -1.33917,3.84826 0.61683,1.60745 0.74997,1.60017 2,-0.10934 0.73654,-1.00729 1.33917,-2.37829 1.33917,-3.04668 z m -1.20034,-2.80748 c 4.13934,-2.15369 7.08854,-5.80768 8.61559,-10.67448 l 1.38701,-4.42053 0.0989,3.42431 0.0989,3.42432 2.62888,-2.42432 c 3.83551,-3.53711 5.37106,-7.99026 5.37106,-15.57647 0,-8.982 -2.53509,-14.19932 -8.87679,-18.26878 -2.62041,-1.68151 -6.19512,-3.34344 -7.9438,-3.69318 -3.11109,-0.62222 -3.17941,-0.55692 -3.17941,3.03878 0,8.87194 -6.12578,14.27314 -21.72747,19.15749 -11.5136,3.6045 -13.92921,5.32231 -12.15255,8.64203 1.22003,2.27965 6.84175,2.34893 13.25608,0.16335 2.60278,-0.88686 4.97463,-1.37017 5.27078,-1.07403 0.29614,0.29615 -1.74443,1.34925 -4.53461,2.34024 -2.79018,0.99098 -5.27292,2.32263 -5.5172,2.95922 -0.68194,1.7771 2.28448,5.38704 4.42673,5.38704 2.7742,0 11.2162,-2.9769 13.05698,-4.60428 2.67499,-2.36488 3.40662,-1.54127 0.95194,1.07162 -1.27487,1.35704 -4.47847,3.18495 -7.11912,4.06204 -3.42284,1.13688 -4.64182,2.00999 -4.24607,3.04129 1.57218,4.09703 10.50007,2.47597 18.03342,-3.27436 3.94361,-3.01023 4.50014,-3.22356 3.18705,-1.2217 -1.47412,2.24737 -6.37701,6.13487 -9.1839,7.2819 -0.86591,0.35386 -0.78259,0.78788 0.29794,1.55205 2.05714,1.45483 4.59713,1.35273 7.79966,-0.31355 z m -47.59699,-48.60568 c 8.37016,-4.65244 8.72612,-7.13336 15.25571,-7.97896 4.20942,-0.54512 6.25968,15.01211 10.11393,21.70709 3.34667,6.18675 4.60519,6.32055 11.94588,1.27002 5.2276,-3.59668 7.82228,-8.65568 6.91629,-13.48506 -0.76194,-4.06144 -0.19824,-4.23853 6.79375,-2.13425 l 4.54609,1.36818 -0.49728,-4.11818 c -1.00502,-8.32296 -4.32869,-21.67794 -6.76734,-27.19216 -6.02531,-13.62428 -19.50769,-27.94498 -31.93775,-33.9236 -8.0185,-3.85674 -18.3555,-6.46979 -25.57195,-6.46421 -11.45936,0.009 -24.33818,5.22591 -34.08927,13.80917 -7.3242,6.44702 -13.91073,20.98295 -13.91073,30.69985 l 0,4.18423 4.25,-0.78393 c 5.89878,-1.08805 8.84796,-0.36849 19.7056,4.80786 7.09408,3.38208 11.04176,4.63525 15.80663,5.01773 5.86325,0.47064 6.39404,0.34533 6.91103,-1.63166 0.308,-1.1778 0.76466,-2.14145 1.0148,-2.14145 0.66511,0 3.61599,3.05907 3.18099,3.29761 -0.20298,0.11131 -2.10475,1.0867 -4.22616,2.16754 -2.12141,1.08083 -5.80441,4.49581 -8.18444,7.58885 -2.38004,3.09303 -5.96322,7.06002 -7.96264,8.81553 l -3.6353,3.19184 6.77231,9.25677 c -24.4089,17.9225 13.22611,-13.13535 23.56985,-17.32881 z m 35.56377,-10.23933 c 4.04492,-2.81048 7.67067,-9.87229 6.81636,-13.27613 -0.3415,-1.36063 -0.21481,-2.47387 0.28152,-2.47387 1.53634,0 2.00996,3.87146 0.94531,7.72727 -1.16516,4.21988 -6.73062,10.27273 -9.44555,10.27273 -1.36571,0 -1.00654,-0.57626 1.40236,-2.25 z m -5.44935,-6.67923 c 4.11564,-4.55551 6.0032,-10.09815 4.65055,-13.65588 -1.15799,-3.04576 0.51121,-3.25719 2.11128,-0.26743 0.86796,1.62179 0.86218,3.10575 -0.0236,6.06217 -1.16807,3.89872 -7.38485,11.79037 -9.28804,11.79037 -0.55,0 0.59741,-1.76815 2.54981,-3.92923 z m -39.26461,-9.07077 c -0.0358,-0.825 -1.37368,-2.24442 -2.97301,-3.15426 -4.35595,-2.47803 -6.46409,-6.37352 -6.46409,-11.94456 0,-5.79389 2.70412,-9.31741 8.47827,-11.04739 7.6168,-2.28205 13.69361,0.9766 16.41308,8.80139 1.20412,3.46466 1.64063,3.81377 4.41476,3.53085 4.97796,-0.50769 3.52205,1.52036 -1.64802,2.29566 -8.00398,1.20028 -12.45909,4.13101 -16.96466,11.15997 -0.91616,1.42927 -1.20623,1.512 -1.25633,0.35834 z m 0.14752,-4.2 c -1.42164,-1.42165 -1.59438,-5.43823 -0.2691,-6.2573 0.512,-0.31643 1.19411,-0.14945 1.51581,0.37108 0.60687,0.98193 5.11481,0.85803 6.14165,-0.16881 0.32184,-0.32185 -0.5549,-1.33217 -1.94832,-2.24517 -5.2521,-3.44131 -11.23304,2.97749 -7.06541,7.58266 0.95444,1.05464 1.9806,1.91754 2.28036,1.91754 0.29975,0 0.005,-0.54 -0.65499,-1.2 z m -1.34712,-9.72127 c 3.09792,-1.65796 6.29365,-1.2897 8.73832,1.00694 1.90294,1.78773 2.55501,1.91123 4.56445,0.86455 1.28939,-0.67162 2.47568,-1.32901 2.6362,-1.46086 0.16051,-0.13185 -0.45777,-2.11318 -1.37396,-4.40296 -2.63994,-6.59787 -9.81045,-9.00325 -16.51051,-5.53851 -4.58216,2.36953 -6.21818,8.48111 -3.73136,13.93907 l 1.17601,2.58108 1.24261,-2.95529 c 0.68343,-1.6254 2.14964,-3.44071 3.25824,-4.03402 z m -25.00458,47.15868 c 6.03547,-0.27218 9.16157,-4.44969 15.02258,-11.76361 2.85328,-3.56059 4.95485,-6.4738 4.67016,-6.4738 -0.28469,0 -4.29906,1.56532 -8.92081,3.47851 -4.62176,1.91318 -10.99724,3.78339 -14.16773,4.15602 -3.61986,0.42544 -6.47313,1.38609 -7.6691,2.58207 -2.59999,2.59998 -1.08777,5.08534 2.11546,6.69776 3.05718,1.5389 3.93847,1.54903 8.94944,1.32305 z m -0.8483,-12.67363 c 3.575,-0.77082 8.73916,-2.40403 11.47593,-3.62937 l 4.97592,-2.22788 -3.97592,-1.19292 c -2.18677,-0.65611 -7.35093,-2.93594 -11.47593,-5.06629 -6.5929,-3.4049 -8.30337,-3.86379 -14.1423,-3.79416 -8.50217,0.10138 -14.2203,2.65578 -14.66993,6.55334 -0.38492,3.33668 1.92226,5.49982 9.0627,8.49689 6.17232,2.59073 9.92556,2.76296 18.74953,0.86039 z m 95.51235,-16.01066 c 4.37034,-4.12176 4.36239,-6.9168 -0.0209,-7.34612 -5.21728,-0.511 -5.72016,-0.90507 -4.39263,-3.44217 0.65179,-1.24566 2.94082,-4.18856 5.08672,-6.53979 3.984,-4.36518 4.2097,-6.22504 0.75544,-6.22504 -3.01678,0 -2.33128,-1.87533 2.62066,-7.16936 3.76883,-4.02918 4.50748,-5.4376 4.25,-8.1037 -0.37575,-3.89082 -3.16526,-4.69475 -7.97114,-2.29726 -4.13202,2.06132 -5.11467,1.9822 -3.69115,-0.29722 1.47485,-2.36161 0.46266,-5.13618 -1.86797,-5.12042 -0.97976,0.007 -3.73981,1.13163 -6.13345,2.5 -4.82632,2.75907 -5.14793,2.86108 -5.14793,1.63285 0,-0.47031 2.8125,-2.7887 6.25,-5.15197 7.24904,-4.9837 14.75,-11.889 14.75,-13.57869 0,-0.64314 -0.69456,-1.74578 -1.54348,-2.45032 -1.51008,-1.25326 -4.29694,-0.89458 -12.22904,1.57391 -1.91302,0.59534 -1.71527,0.14997 1.25,-2.8153 4.11891,-4.11891 4.3804,-5.46911 1.21317,-6.26403 -4.84834,-1.21686 -19.09085,5.98289 -27.44065,13.87156 -2.8875,2.72803 -5.25,4.71131 -5.25,4.40729 0,-0.30402 1.17871,-2.82468 2.61935,-5.60146 4.58435,-8.83612 1.07967,-13.19464 -6.16595,-7.66814 -3.21941,2.45557 -12.4534,13.98635 -12.4534,15.55097 0,0.4513 2.3625,1.59394 5.25,2.5392 8.12864,2.661 14.04036,5.93793 20.67877,11.46247 10.65388,8.86625 20.17256,23.29255 23.22364,35.19723 0.67413,2.63031 1.55858,4.78239 1.96544,4.78239 0.40686,0 2.38439,-1.5511 4.3945,-3.44688 z m -142.14827,10.2773 c -6.87578,-3.32931 -4.11466,-13.60569 3.77899,-13.60569 2.40767,0 6.85693,4.45709 6.85693,7.27528 0,3.00418 -4.08366,7.53111 -6.70455,7.43232 -0.9875,-0.0372 -2.75662,-0.53309 -3.93137,-1.10191 z m 8.30338,-3.44565 c 1.53463,-2.34215 1.55989,-2.89035 0.24185,-5.25 -2.75167,-4.92625 -10.90931,-3.42892 -10.90931,2.00241 0,3.85986 1.88315,5.86283 5.51213,5.86283 2.60817,0 3.85678,-0.63341 5.15533,-2.61524 z m -28.55739,-14.78027 c -8.25337,-4.57449 -5.87314,-18.43271 3.46687,-20.18491 6.51006,-1.22129 13.40914,4.11526 13.41932,10.38008 0.005,3.11141 -2.49629,7.73673 -5.21306,9.63963 -2.70025,1.89133 -8.41295,1.97218 -11.67313,0.1652 z m 11.69453,-2.09353 c 5.62077,-4.72957 4.41021,-13.26978 -2.27704,-16.06389 -4.48736,-1.87494 -7.85107,-1.03976 -11.03051,2.7388 -7.49152,8.90316 4.4054,20.81576 13.30755,13.32509 z m 11.9581,-14.07628 c -7.17552,-3.8934 -4.04612,-15.47588 4.16161,-15.40288 4.2296,0.0376 6.61495,1.62617 8.02981,5.34752 1.96356,5.16456 -2.75102,11.7671 -8.26922,11.58064 -0.6517,-0.022 -2.41669,-0.7084 -3.9222,-1.52528 z m 9.4873,-2.2307 c 2.40249,-2.07844 2.26503,-7.68895 -0.25,-10.20398 -4.06472,-4.06472 -12,-1.01975 -12,4.60469 0,7.09359 6.88503,10.24063 12.25,5.59929 z m -19.25,-28.20398 c -1.1,-1.1 -2,-2.9 -2,-4 0,-2.5447 3.4135,-6 5.92742,-6 2.06456,0 6.07258,4.37913 6.07258,6.63485 0,2.04 -3.71861,5.36515 -6,5.36515 -1.1,0 -2.9,-0.9 -4,-2 z m 6.06574,-0.0352 c 2.83781,-1.51875 2.62747,-6.76751 -0.31574,-7.87888 -4.93638,-1.86399 -8.77506,3.85585 -4.76625,7.10199 2.62152,2.12278 2.57924,2.11631 5.08199,0.77689 z"
           style="fill:#292929" />
      </g>
      <path
         style="fill:#ffffff;fill-opacity:1;stroke:#c8c8c8;stroke-width:1.34829688;stroke-linejoin:round;stroke-miterlimit:4;stroke-opacity:1;stroke-dasharray:none"
         d="m 545.47716,86.752808 c -2.02884,-2.17188 -3.58643,-5.555158 -6.17419,-13.411153 -2.77336,-8.419427 -4.17217,-11.233124 -5.78578,-11.638117 -1.9038,-0.477823 -5.77813,1.054193 -10.36921,4.100261 -2.46224,1.633637 -5.58915,3.540043 -6.94868,4.236452 -3.39467,1.738898 -10.8253,6.697934 -17.39276,11.607532 l -5.48282,4.098755 -2.89552,-3.91349 -2.89553,-3.91349 2.90134,-2.645776 c 1.59574,-1.455176 4.93941,-5.066387 7.43037,-8.02491 4.55632,-5.411565 7.9797,-8.378303 11.492,-9.959096 1.04454,-0.470124 1.89917,-1.111859 1.89917,-1.426084 0,-0.668153 -2.56212,-3.337057 -3.20353,-3.337057 -0.24079,0 -0.75358,0.758417 -1.13953,1.685371 -0.38595,0.926954 -0.9318,1.847665 -1.213,2.046022 -0.86768,0.612055 -7.81796,-0.133463 -11.67727,-1.252559 -2.0159,-0.584554 -6.80006,-2.465023 -10.63147,-4.178817 -10.16075,-4.544915 -10.96661,-4.764027 -16.36611,-4.4499 -2.49287,0.145027 -4.98755,0.398201 -5.54372,0.562608 -0.97512,0.288252 -1.01066,0.196784 -0.99554,-2.562447 0.0455,-8.302534 4.27875,-19.794769 10.05826,-27.305677 6.20953,-8.069748 18.60428,-15.103765 30.61913,-17.37634696 8.78976,-1.66256404 20.96608,0.478702 31.94365,5.61744496 8.61929,4.034803 17.43083,11.55858 24.50359,20.922512 6.80798,9.013365 9.74196,15.896321 12.93156,30.336679 0.98535,4.461002 2.36602,13.103526 2.13089,13.338656 -0.0749,0.07492 -1.84026,-0.345263 -3.92298,-0.933732 -7.56471,-2.137396 -7.36466,-2.22398 -7.37482,3.191873 -0.009,4.833765 -1.06431,7.256668 -4.53339,10.408901 -2.80158,2.545705 -7.65639,5.454565 -9.10353,5.454565 -0.59192,0 -1.59707,-0.56869 -2.26058,-1.27898 z m 7.90312,-25.376515 c 1.54332,-0.857526 4.49688,-3.795199 5.97345,-5.941324 2.47182,-3.592671 3.31001,-9.998556 1.50436,-11.497111 -0.9741,-0.808435 -1.25901,-0.159054 -1.27443,2.904771 -0.0116,2.28988 -0.29791,3.367753 -1.55063,5.836237 -1.38197,2.723155 -5.88623,7.93755 -6.85657,7.93755 -0.20398,0 -0.37087,0.303366 -0.37087,0.674148 0,0.810371 1.19869,0.850285 2.57469,0.08573 l 0,0 z m -4.04581,-8.034667 c 3.11929,-3.695574 5.00671,-7.044837 5.62137,-9.975213 0.50258,-2.39605 0.46746,-2.713104 -0.50307,-4.542587 -1.83172,-3.452826 -3.16731,-2.981079 -2.31591,0.818014 0.86964,3.880534 -0.36999,7.211045 -4.86362,13.067021 -1.49952,1.954132 -2.62073,3.723924 -2.4916,3.932874 0.42714,0.691119 2.37685,-0.722125 4.55283,-3.300109 l 0,0 z m -38.62586,-11.06484 c 3.9189,-5.586778 8.33983,-8.391862 15.38376,-9.761007 6.00252,-1.166722 7.31722,-2.910191 2.1945,-2.910191 l -2.69065,0 -1.71885,-3.738138 c -3.06575,-6.667339 -6.18575,-9.028987 -11.94768,-9.043641 -4.38833,-0.01116 -7.51385,1.151964 -10.13262,3.77073 -2.56564,2.565636 -3.39629,5.333587 -2.93927,9.794361 0.51308,5.008035 1.74478,7.015044 6.46573,10.535746 1.31037,0.977219 2.56939,2.268359 2.79783,2.8692 0.22844,0.600842 0.49217,1.09244 0.58607,1.09244 0.0939,0 0.99442,-1.174277 2.00118,-2.6095 l 0,0 z"
         id="path3094"
         inkscape:connector-curvature="0" />
      <path
         style="fill:#ffffff;fill-opacity:1;stroke:#c8c8c8;stroke-width:1.34829688;stroke-linejoin:round;stroke-miterlimit:4;stroke-opacity:1;stroke-dasharray:none"
         d="m 468.33476,64.972316 c -2.42739,-0.475173 -7.62344,-2.511979 -10.1075,-3.962054 -4.67199,-2.727281 -5.69334,-5.474169 -3.12364,-8.400898 2.1089,-2.4019 5.45474,-3.469639 11.74203,-3.747161 6.60995,-0.291765 7.85498,0.01562 16.32038,4.029374 3.70782,1.758009 8.32544,3.735292 10.26139,4.393962 l 3.51992,1.197582 -2.63538,1.182687 c -8.69673,3.902859 -20.66177,6.347025 -25.9772,5.306508 z"
         id="path3096"
         inkscape:connector-curvature="0" />
      <path
         style="fill:#ffffff;fill-opacity:1;stroke:#c8c8c8;stroke-width:1.34829688;stroke-linejoin:round;stroke-miterlimit:4;stroke-opacity:1;stroke-dasharray:none"
         d="m 474.06782,75.730696 c -2.38044,-1.080542 -4.16004,-2.822652 -4.16004,-4.07239 0,-0.524625 0.57683,-1.530699 1.28185,-2.235719 1.34521,-1.34521 3.04117,-1.912897 10.42459,-3.489423 2.35995,-0.503902 7.60281,-2.147648 11.6508,-3.65277 4.048,-1.505122 7.43639,-2.66019 7.52976,-2.566818 0.2608,0.260802 -6.86288,9.155813 -9.70806,12.121999 -3.59237,3.745161 -5.97945,4.773261 -11.06672,4.766369 -3.02469,-0.0041 -4.52594,-0.223843 -5.95218,-0.871248 z"
         id="path3098"
         inkscape:connector-curvature="0" />
      <path
         style="fill:#ffffff;fill-opacity:1;stroke:#c8c8c8;stroke-width:1.34829688;stroke-linejoin:round;stroke-miterlimit:4;stroke-opacity:1;stroke-dasharray:none"
         d="m 557.88415,118.60578 c -0.67977,-0.36878 -1.23594,-0.75998 -1.23594,-0.86933 0,-0.10935 0.65729,-0.53684 1.46065,-0.94997 3.78104,-1.9444 9.20704,-7.04361 8.79866,-8.26874 -0.0892,-0.26763 -1.27518,0.3104 -2.6355,1.2845 -3.84887,2.75612 -6.9913,4.49505 -9.88404,5.46954 -3.23701,1.09047 -4.48126,1.13829 -4.48126,0.17223 0,-0.51156 -0.22941,-0.62778 -0.7865,-0.39844 -1.80284,0.7422 -2.43267,0.74436 -3.24286,0.0111 -0.46957,-0.42496 -0.755,-1.03006 -0.63427,-1.34467 0.12072,-0.3146 1.97784,-1.34079 4.12694,-2.28042 5.16951,-2.26021 8.56876,-4.78209 8.61152,-6.38883 0.0218,-0.81909 -0.27353,-0.72465 -3.09664,0.99031 -3.04159,1.84766 -10.07192,4.29052 -12.34776,4.29052 -0.89049,0 -1.61907,-0.0984 -1.61907,-0.21867 0,-0.12027 0.75773,-0.91308 1.68384,-1.7618 2.22208,-2.03638 1.61339,-2.52086 -0.95071,-0.75671 l -2.02663,1.39436 -0.70155,-1.00161 c -0.38585,-0.55088 -0.70155,-1.43994 -0.70155,-1.97569 0,-1.00905 0.88473,-1.54126 6.29205,-3.78499 2.67593,-1.11036 3.90388,-1.98825 3.30152,-2.360332 -0.20911,-0.12917 -2.6049,0.350402 -5.32396,1.065712 -6.41519,1.68766 -10.63778,1.81734 -12.17425,0.3739 -1.44099,-1.353742 -1.3797,-1.746252 0.60137,-3.851042 1.4793,-1.57168 2.53713,-2.08321 8.65157,-4.18356 3.83141,-1.31612 8.17967,-2.88756 9.66279,-3.4921 3.95748,-1.6131 8.95358,-4.84344 10.76629,-6.961189 1.98075,-2.314056 3.39083,-6.002825 3.39083,-8.870399 0,-3.09198 0.29313,-3.615357 2.02485,-3.615357 2.43997,0 9.50716,3.826567 12.39625,6.712009 4.23035,4.225018 5.88065,10.393136 4.96576,18.559916 -0.61962,5.531132 -2.11844,8.989692 -5.20563,12.012172 l -2.04656,2.00366 0,-3.2396 c 0,-1.78178 -0.17596,-3.2396 -0.39102,-3.2396 -0.21506,0 -0.65236,0.96066 -0.97176,2.1348 -1.11487,4.09823 -3.05739,7.55219 -5.59956,9.95648 -3.96823,3.75298 -7.77267,4.95788 -10.67787,3.38179 z"
         id="path3100"
         inkscape:connector-curvature="0" />
      <path
         style="fill:#ffffff;fill-opacity:1;stroke:#c8c8c8;stroke-width:1.34829688;stroke-linejoin:round;stroke-miterlimit:4;stroke-opacity:1;stroke-dasharray:none"
         d="m 492.57296,179.71572 c -6.16807,-3.00256 -15.17582,-3.65395 -22.32811,-1.61464 -1.66852,0.47574 -3.03367,0.68317 -3.03367,0.46096 0,-1.60879 5.36495,-9.95243 8.98522,-13.97391 3.05319,-3.39156 5.20136,-4.59087 10.60025,-5.91806 4.16154,-1.02301 7.50389,-1.58451 27.04313,-4.54308 17.11908,-2.59212 28.86189,-5.42073 37.5763,-9.05139 1.44812,-0.60332 2.7256,-1.00429 2.83885,-0.89104 0.33456,0.33455 -7.84042,8.07765 -12.14164,11.50021 -8.65786,6.88924 -21.53793,14.87906 -31.98132,19.83879 -5.3346,2.53349 -13.3841,5.84379 -14.04176,5.77458 -0.18704,-0.0197 -1.7698,-0.73177 -3.51725,-1.58242 l 0,0 z"
         id="path3102"
         inkscape:connector-curvature="0" />
      <path
         style="fill:#ffffff;fill-opacity:1;stroke:#c8c8c8;stroke-width:1.34829688;stroke-linejoin:round;stroke-miterlimit:4;stroke-opacity:1;stroke-dasharray:none"
         d="m 445.65068,251.83614 c -0.69442,-0.69442 -0.16854,-3.31652 1.97783,-9.86164 1.2526,-3.81966 2.20951,-7.29254 2.12647,-7.71751 -0.10366,-0.53054 -0.9538,0.31153 -2.71284,2.68711 -4.14585,5.59892 -5.74366,5.71548 -5.7261,0.41773 0.0116,-3.49468 0.69229,-5.20496 4.23453,-10.63923 2.96929,-4.5553 4.00053,-6.49119 3.64645,-6.84527 -0.45177,-0.45177 -2.59655,1.41605 -5.61207,4.88735 -3.64334,4.19401 -4.00206,4.41534 -5.05287,3.11765 -0.59781,-0.73827 -0.82005,-1.76535 -0.81651,-3.77352 0.0113,-6.39791 2.40467,-10.14903 10.02587,-15.71344 0.95596,-0.69797 1.64056,-1.3666 1.52131,-1.48584 -0.11924,-0.11924 -1.43127,0.0979 -2.91562,0.48253 -3.43457,0.88999 -6.11301,0.89958 -6.83926,0.0245 -0.89904,-1.08328 -0.32709,-5.09723 1.15305,-8.09212 0.78272,-1.58374 2.76136,-4.18267 4.86444,-6.38942 1.94977,-2.04588 3.40448,-3.71979 3.23268,-3.71979 -0.17179,0 -1.20674,0.22521 -2.29989,0.50047 -2.65401,0.6683 -4.25312,0.2488 -4.25312,-1.11573 0,-0.94554 0.59801,-1.90517 3.58419,-5.75156 l 0.93036,-1.19836 -2.48199,-1.1363 c -1.36509,-0.62496 -2.48199,-1.39176 -2.48199,-1.70399 0,-0.31224 0.7401,-1.32564 1.64467,-2.252 1.38863,-1.42209 1.55498,-1.79236 1.06855,-2.37847 -0.31687,-0.3818 -1.07026,-0.69418 -1.67422,-0.69418 -1.32314,0 -2.83673,-0.74997 -2.83673,-1.40558 0,-0.26129 0.40449,-0.98931 0.89887,-1.61781 0.6191,-0.78706 0.89886,-1.82325 0.89886,-3.32927 0,-1.56934 0.17672,-2.18655 0.62606,-2.18655 0.96619,0 1.23945,-1.28266 0.36843,-1.72937 -0.42338,-0.21713 -2.89024,-0.52771 -5.48193,-0.69017 -5.65482,-0.35448 -6.45975,-0.83115 -4.7782,-2.82956 1.08217,-1.28609 4.7054,-2.84068 6.62066,-2.84068 0.46599,0 0.84725,-0.30837 0.84725,-0.68527 0,-1.38934 -1.97807,-1.53376 -8.83632,-0.64516 -9.12713,1.18258 -8.88077,1.22636 -6.32726,-1.12423 1.44501,-1.33019 3.12281,-2.30919 5.16847,-3.01583 2.738,-0.94579 3.70878,-1.03656 10.10747,-0.94513 4.18923,0.0599 7.07856,-0.0713 7.07856,-0.32127 0,-1.47715 -7.9345,-2.4864 -14.0574,-1.78807 -5.3513,0.61033 -8.48521,2.27964 -12.33535,6.57055 -4.26387,4.75201 -7.41332,6.15043 -9.91127,4.4008 -1.33078,-0.93212 -1.25913,-2.11945 0.33071,-5.48006 0.73087,-1.54492 1.18576,-2.83224 1.01086,-2.8607 -0.17489,-0.0285 -0.69058,-0.0126 -1.14598,0.0353 -0.66924,0.0704 -0.76713,-0.1136 -0.51054,-0.95947 0.9788,-3.22678 3.87433,-5.75967 8.70685,-7.6164 5.51393,-2.11855 15.48231,-1.52133 23.51031,1.40853 5.19775,1.89694 8.37514,3.81496 16.71198,10.08812 4.09123,3.0785 8.96134,6.433 10.82247,7.45444 1.86112,1.02145 3.38386,1.93297 3.38386,2.02562 0,0.0926 -1.07242,1.844 -2.38315,3.89191 -3.40498,5.31999 -5.00945,8.3226 -5.91377,11.0671 -1.06702,3.23824 -0.62464,3.64567 2.78544,2.56535 3.37647,-1.06968 10.19582,-1.52818 16.23647,-1.09166 9.42979,0.68143 10.97511,2.52384 8.32016,9.91969 -3.00816,8.37976 -7.45971,14.67929 -20.58289,29.12752 -10.6495,11.7248 -11.50509,12.88731 -17.7558,24.12527 -4.06046,7.30019 -5.50133,9.13272 -7.18078,9.13272 -0.68237,0 -1.3755,-0.13483 -1.54029,-0.29962 z"
         id="path3104"
         inkscape:connector-curvature="0" />
      <path
         style="fill:#ffffff;fill-opacity:1;stroke:#c8c8c8;stroke-width:1.34829688;stroke-linejoin:round;stroke-miterlimit:4;stroke-opacity:1;stroke-dasharray:none"
         d="m 434.08068,56.038088 c -1.09758,-1.097579 -1.31373,-1.679166 -1.31373,-3.534848 0,-2.667377 1.08366,-4.28413 3.37933,-5.04177 2.8985,-0.956591 6.02808,0.541731 7.25252,3.472227 0.58544,1.401161 0.55503,1.663753 -0.3867,3.339343 -1.24547,2.216006 -2.79749,3.078773 -5.53836,3.078773 -1.69897,0 -2.31965,-0.240315 -3.39306,-1.313725 z"
         id="path3106"
         inkscape:connector-curvature="0" />
      <path
         style="fill:#ffffff;fill-opacity:1;stroke:#c8c8c8;stroke-width:1.34829688;stroke-linejoin:round;stroke-miterlimit:4;stroke-opacity:1;stroke-dasharray:none"
         d="m 416.36268,39.421324 c -4.72044,-2.185491 -6.82365,-7.46115 -4.77366,-11.974154 1.07033,-2.356303 4.63839,-5.492244 6.68615,-5.876406 2.11425,-0.396635 6.00671,0.855154 7.94151,2.553934 2.01666,1.770648 2.95482,3.892848 2.95482,6.684079 0,6.677185 -6.92779,11.335375 -12.80882,8.612547 z"
         id="path3108"
         inkscape:connector-curvature="0" />
      <path
         style="fill:#ffffff;fill-opacity:1;stroke:#c8c8c8;stroke-width:1.34829688;stroke-linejoin:round;stroke-miterlimit:4;stroke-opacity:1;stroke-dasharray:none"
         d="m 438.98774,22.959425 c -0.65717,-0.356938 -1.60085,-1.309502 -2.09707,-2.116809 -2.94042,-4.783796 -0.34213,-10.046372 5.21565,-10.563813 6.61814,-0.6161615 9.54845,9.122432 3.72906,12.393115 -2.00967,1.129498 -5.06152,1.257634 -6.84764,0.287507 z"
         id="path3110"
         inkscape:connector-curvature="0" />
      <path
         style="fill:#ffffff;fill-opacity:1;stroke:#c8c8c8;stroke-width:1.34829688;stroke-linejoin:round;stroke-miterlimit:4;stroke-opacity:1;stroke-dasharray:none"
         d="m 429.63985,-7.2968466 c -2.2422,-2.1329566 -2.37841,-3.6218594 -0.50293,-5.4973474 2.70162,-2.701611 6.77606,-1.226859 6.77606,2.452604 0,2.1546936 -0.59599,3.2448801 -2.23817,4.0940842 -1.82194,0.9421651 -1.98641,0.8993926 -4.03496,-1.0493408 z"
         id="path3112"
         inkscape:connector-curvature="0" />
      <path
         style="fill:#ffffff;fill-opacity:1;stroke:#c8c8c8;stroke-width:1.34829688;stroke-linejoin:round;stroke-miterlimit:4;stroke-opacity:1;stroke-dasharray:none"
         d="m 571.94185,50.722687 c -0.11118,-0.185391 -0.84903,-2.440422 -1.63964,-5.011184 -1.79644,-5.841262 -6.276,-14.693752 -10.22856,-20.213661 C 551.33834,13.298661 540.74391,5.2025841 526.7689,0.04694555 c -2.55664,-0.9431925 -4.75187,-1.98442415 -4.87828,-2.31384855 -0.62453,-1.6274945 10.93065,-15.07117 14.3959,-16.748672 5.71007,-2.764196 6.80953,1.015618 2.8549,9.8148321 -1.15743,2.5753526 -2.03509,4.7517985 -1.95034,4.8365462 0.18606,0.1860591 2.77362,-1.8818584 6.64596,-5.31129 9.42772,-8.3494123 23.71593,-14.8497473 27.13901,-12.3467313 1.1336,0.828909 0.60662,1.97901 -2.42843,5.29983 -2.25467,2.466973 -2.93629,3.853947 -1.65175,3.361023 0.35614,-0.136664 2.88058,-0.799147 5.60986,-1.472184 5.47411,-1.349904 6.51388,-1.227801 7.92841,0.931046 0.72022,1.099189 0.70412,1.205859 -0.40063,2.654253 -1.652,2.1658876 -6.87793,6.6990611 -13.14881,11.40579454 -5.79307,4.34810536 -6.92841,5.32984746 -6.92841,5.99109136 0,0.8397053 1.61073,0.3730778 5.36892,-1.5553759 4.8377,-2.4823821 6.52264,-2.8809422 7.6948,-1.8201517 1.02105,0.9240404 1.08802,2.2298506 0.19453,3.7928574 -1.50246,2.6282763 -0.7632,2.7955096 3.97344,0.8988645 1.85197,-0.7415632 3.8897,-1.3482968 4.52829,-1.3482968 1.86254,0 2.95879,1.4616068 2.95879,3.9448896 0,2.403254 -0.34337,3.022704 -4.04154,7.290917 -5.54869,6.403983 -5.69528,7.123713 -1.57636,7.739799 1.81251,0.271107 1.27002,1.910155 -1.91872,5.797214 -6.40224,7.804274 -6.80571,9.028865 -3.22763,9.796226 1.24811,0.267668 2.64141,0.486672 3.09624,0.486672 0.45482,0 1.28433,0.370368 1.84336,0.823036 1.5256,1.235364 0.88038,2.805824 -2.53572,6.171847 -2.74247,2.702266 -3.88455,3.369717 -4.37284,2.555553 l 0,0 z"
         id="path3114"
         inkscape:connector-curvature="0" />
      <path
         style="fill:#ffffff;fill-opacity:1;stroke:#c8c8c8;stroke-width:1.34829688;stroke-linejoin:round;stroke-miterlimit:4;stroke-opacity:1;stroke-dasharray:none"
         d="m 488.23059,151.21464 c -12.19368,-11.48331 -23.51418,-26.9551 -26.01367,-35.55302 -0.56894,-1.95711 -0.62282,-2.75791 -0.23438,-3.48372 0.64653,-1.20804 10.1152,-8.74281 18.70716,-14.886349 13.27964,-9.4954 38.68979,-26.285045 39.12389,-25.850946 0.20407,0.204068 -23.27189,18.476104 -28.17101,21.926333 -1.60672,1.131541 -5.44936,3.520623 -8.53921,5.309071 -11.1973,6.481161 -17.97729,11.426151 -17.97729,13.111771 0,2.23643 5.40986,13.46514 10.68186,22.17127 3.41259,5.63551 4.90665,7.4366 6.16891,7.4366 0.59356,0 3.2473,-1.58924 6.14193,-3.67821 2.80325,-2.02302 7.92824,-5.65777 11.38887,-8.07724 3.46063,-2.41946 8.96624,-6.61611 12.23469,-9.3259 3.26845,-2.70978 8.32456,-6.48351 11.23581,-8.38606 2.91124,-1.90256 6.46455,-4.25457 7.89626,-5.22669 3.34232,-2.26942 4.36224,-2.16405 5.26197,0.54361 0.37078,1.11584 0.83229,2.26989 1.02558,2.56455 0.23524,0.35862 -1.22148,1.59105 -4.40616,3.72773 -4.40211,2.9535 -5.65316,4.14302 -5.02158,4.7746 0.68322,0.68321 3.21684,-0.64148 6.99191,-3.65569 4.48013,-3.57717 4.36364,-3.54844 6.79969,-1.67725 0.12154,0.0934 -0.13127,0.36686 -0.56179,0.60779 -0.43052,0.24093 -0.78276,0.83249 -0.78276,1.31459 0,1.02414 0.0543,1.03728 1.52277,0.36821 0.98391,-0.4483 1.24431,-0.35873 2.20539,0.75859 l 1.08975,1.26691 -4.76848,3.34933 c -5.54149,3.89229 -6.79092,4.95452 -6.79092,5.77349 0,1.65138 4.39775,-0.67827 10.42101,-5.52039 l 3.00537,-2.41603 3.74187,0.37927 c 2.05804,0.20861 4.34602,0.69598 5.08441,1.08305 2.05869,1.07918 4.49448,3.86302 5.98939,6.84519 1.94504,3.88013 4.17224,9.65938 3.89523,10.10758 -0.30185,0.48841 -7.40235,2.86721 -7.69245,2.57711 -0.11931,-0.11932 0.60137,-0.86505 1.60152,-1.65719 1.76008,-1.394 2.4425,-3.16244 1.22036,-3.16244 -0.32895,0 -2.93015,1.5925 -5.78043,3.53888 -4.85147,3.31294 -5.46607,3.6012 -9.62649,4.51511 -2.44428,0.53693 -4.8992,1.08993 -5.45538,1.22889 -0.73425,0.18345 -1.01122,0.0547 -1.01122,-0.47022 0,-0.98361 -0.40998,-0.91329 -2.34619,0.40239 -1.39391,0.94719 -7.83209,2.77866 -8.2608,2.34995 -0.0748,-0.0748 1.68439,-1.51919 3.90939,-3.20969 2.66523,-2.02498 3.99397,-3.32294 3.89457,-3.80438 -0.0924,-0.44742 -0.49305,-0.67041 -1.03343,-0.57514 -0.99605,0.17563 -5.20012,2.89664 -9.84449,6.37168 -1.71561,1.28367 -3.53581,2.50628 -4.04489,2.71692 -1.31139,0.5426 -17.8426,3.65113 -18.09176,3.40197 -0.11335,-0.11335 1.62966,-1.47823 3.87336,-3.03308 4.06373,-2.81609 4.40992,-3.22732 3.68277,-4.37465 -0.52406,-0.82689 -1.63547,-0.21393 -8.64256,4.76648 -3.74742,2.66354 -6.26059,4.13641 -7.41563,4.34598 -0.96093,0.17435 -2.19344,0.42405 -2.73892,0.55488 -0.75507,0.1811 -1.60084,-0.33572 -3.5438,-2.16549 l 0,0 z m 8.97865,-5.6702 c 5.33394,-3.75684 7.91631,-6.37341 7.91631,-8.02117 0,-1.40091 -0.68773,-2.41967 -1.63345,-2.41967 -0.95327,0 -8.35471,5.19715 -11.06301,7.76823 -2.05519,1.95106 -2.58424,2.73657 -2.58424,3.83697 0,1.68146 1.05713,2.41565 2.6217,1.8208 0.60279,-0.22917 2.737,-1.5725 4.74269,-2.98516 l 0,0 z m 25.2603,-1.97662 c 4.54656,-3.14711 9.43927,-6.98751 10.69435,-8.39424 0.73766,-0.82679 0.75751,-0.98471 0.15292,-1.21671 -0.96759,-0.3713 -2.59551,0.55373 -8.71814,4.95389 -2.9238,2.10126 -5.77105,4.13614 -6.32723,4.52196 -1.10502,0.76656 -1.40585,2.90668 -0.40858,2.90668 0.33145,0 2.40446,-1.24721 4.60668,-2.77158 l 0,0 z m -2.40675,-5.43707 c 6.38745,-4.33928 11.80653,-9.76864 9.75016,-9.76864 -0.98857,0 -12.15056,8.24197 -14.51191,10.71553 -1.32761,1.3907 -1.29271,2.48997 0.0635,1.99954 0.42466,-0.15357 2.53888,-1.47946 4.69826,-2.94643 l 0,0 z m 25.92161,1.61379 c 4.57986,-2.6691 12.80988,-9.36911 12.37432,-10.07386 -0.612,-0.99024 -2.32682,-0.10292 -8.91427,4.61264 -4.65785,3.33427 -7.01602,5.29804 -7.01602,5.84262 0,1.14918 1.13937,1.02697 3.55597,-0.3814 l 0,0 z m -30.80028,-4.7318 c 6.19472,-4.2743 12.41304,-9.07318 12.41304,-9.57955 0,-2.0343 -2.89712,-0.76576 -9.21336,4.03418 -2.71906,2.06631 -5.52202,4.36558 -6.22879,5.10949 -2.35592,2.47972 -0.35112,2.7682 3.02911,0.43588 l 0,0 z m 28.9509,-0.43098 c 6.47332,-4.39406 10.54802,-8.04725 9.80475,-8.79051 -0.92474,-0.92475 -14.65737,8.72742 -14.65737,10.30214 0,0.81705 2.62806,-0.002 4.85262,-1.51163 l 0,0 z m -30.21744,-4.91375 c 7.72742,-5.2692 12.25208,-9.39568 10.30233,-9.39568 -1.13512,0 -3.11278,1.17104 -8.69932,5.15115 -7.11973,5.07243 -7.44999,5.36211 -7.11335,6.23937 0.45835,1.19445 1.2574,0.90518 5.51034,-1.99484 l 0,0 z m 27.1728,0.67396 c 3.46796,-2.27608 10.71449,-8.21583 11.2546,-9.22504 0.76752,-1.43412 -0.39636,-1.01225 -4.72786,1.71371 -5.63553,3.54663 -11.03131,7.69104 -11.03131,8.47298 0,1.13592 1.93945,0.72188 4.50457,-0.96165 l 0,0 z m -6.61912,-9.24791 c 3.56259,-1.7977 6.98238,-5.88459 4.24935,-5.07829 -1.53399,0.45256 -6.74595,3.59355 -7.68536,4.63158 -0.45625,0.50415 -0.69159,1.13985 -0.52298,1.41267 0.34835,0.56364 1.47011,0.28994 3.95899,-0.96596 l 0,0 z"
         id="path3116"
         inkscape:connector-curvature="0" />
      <path
         style="fill:#ffffff;fill-opacity:1;stroke:#c8c8c8;stroke-width:1.34829688;stroke-linejoin:round;stroke-miterlimit:4;stroke-opacity:1;stroke-dasharray:none"
         d="m 537.49644,88.835127 c -0.49796,-0.97607 -2.28927,-3.965986 -3.98069,-6.644257 -1.69143,-2.67827 -3.92188,-6.496765 -4.95655,-8.485543 -1.4085,-2.707305 -2.24064,-3.786175 -3.31149,-4.293319 l -1.43025,-0.677358 2.90107,-1.618399 c 4.68987,-2.616296 5.44224,-2.810749 6.38251,-1.649573 0.43775,0.540607 1.41683,3.031371 2.17573,5.535032 2.80838,9.265094 3.62877,11.465354 4.70991,12.631931 1.28739,1.389115 2.44175,3.946719 2.44175,5.40995 0,1.128871 -0.7607,1.56621 -2.72422,1.56621 -1.06417,0 -1.46801,-0.324614 -2.20777,-1.774674 z"
         id="path3118"
         inkscape:connector-curvature="0" />
      <path
         style="fill:#ffffff;fill-opacity:1;stroke:#c8c8c8;stroke-width:1.34829688;stroke-linejoin:round;stroke-miterlimit:4;stroke-opacity:1;stroke-dasharray:none"
         d="m 522.42107,99.301902 c -1.41789,-1.417889 -0.48041,-2.564818 3.11593,-3.812092 2.26208,-0.784527 4.1054,-2.634454 4.47715,-4.493186 0.42389,-2.119472 -0.38151,-2.651668 -5.06692,-3.348127 -6.35804,-0.945087 -7.74155,-2.076437 -7.04961,-5.764763 0.27097,-1.444425 3.24502,-4.756901 4.27089,-4.756901 0.22626,0 0.70471,-0.112561 1.06323,-0.250135 0.84016,-0.322401 1.30833,1.338991 0.61007,2.16498 -0.28284,0.334578 -1.27267,1.163249 -2.19962,1.841489 -0.92696,0.678241 -1.68537,1.613023 -1.68537,2.077294 0,0.859828 1.25139,1.241568 6.74148,2.05651 4.75655,0.706056 6.0826,2.038364 5.72569,5.75272 -0.16891,1.757903 -0.46091,2.433543 -1.28278,2.968137 -1.84152,1.197829 -4.39429,3.651108 -4.65547,4.474036 -0.37576,1.183902 -3.21058,1.944126 -4.06467,1.090038 l 0,0 z"
         id="path3120"
         inkscape:connector-curvature="0" />
      <path
         style="fill:#ffffff;fill-opacity:1;stroke:#c8c8c8;stroke-width:1.34829688;stroke-linejoin:round;stroke-miterlimit:4;stroke-opacity:1;stroke-dasharray:none"
         d="m 507.76665,109.14411 c -6.50025,-5.25728 -10.73088,-9.814185 -10.73088,-11.558473 0,-1.397194 1.38625,-0.57474 6.07914,3.606713 2.6484,2.35977 4.89378,4.21198 4.98974,4.11602 0.096,-0.096 -0.40997,-2.17836 -1.12428,-4.62756 -1.7791,-6.100094 -1.93416,-6.86586 -1.6021,-7.912069 0.26199,-0.825468 0.49772,-0.706289 2.52023,1.274159 1.22717,1.201643 3.35291,3.549955 4.72388,5.218473 1.37097,1.668517 2.62489,3.033667 2.78649,3.033667 0.49602,0 -0.2726,-7.731486 -0.99846,-10.043487 -0.37616,-1.198132 -1.20343,-2.963436 -1.83837,-3.922896 -1.37256,-2.074074 -1.47112,-3.112043 -0.29552,-3.112043 2.30194,0 4.99593,6.408444 5.98458,14.236142 0.46034,3.644694 0.44098,4.433134 -0.13409,5.461074 -1.0803,1.93102 -2.2527,1.73627 -5.07481,-0.84297 -1.3934,-1.2735 -2.5303,-2.04235 -2.52644,-1.70856 0.004,0.33379 0.30002,1.82036 0.65814,3.30348 0.35811,1.48313 0.65832,3.25277 0.66713,3.93254 0.0232,1.79079 -1.52089,1.61908 -4.08438,-0.45421 l 0,0 z"
         id="path3122"
         inkscape:connector-curvature="0" />
      <path
         style="fill:#ffffff;fill-opacity:1;stroke:#c8c8c8;stroke-width:1.34829688;stroke-linejoin:round;stroke-miterlimit:4;stroke-opacity:1;stroke-dasharray:none"
         d="m 494.49457,120.83412 c -2.60024,-2.7946 -5.99801,-11.5535 -5.99801,-15.4619 0,-2.74263 3.29565,-5.773773 6.27761,-5.773773 1.55904,0 1.01116,1.199903 -1.33386,2.921313 -2.07642,1.52423 -2.24664,1.79178 -2.24028,3.52137 0.0111,3.02593 0.40101,3.31432 3.26162,2.41258 2.86851,-0.90421 4.37185,-0.97705 4.37185,-0.21182 0,0.30451 -1.11235,1.58065 -2.47188,2.83587 -2.8045,2.58932 -3.07597,3.71494 -1.40083,5.80857 1.18776,1.4845 1.56253,1.41278 4.74894,-0.9089 1.62044,-1.18068 2.73292,-1.28362 3.06587,-0.28369 0.25363,0.76168 -5.34711,6.37632 -6.36053,6.37632 -0.42379,0 -1.28801,-0.55617 -1.9205,-1.23594 z"
         id="path3124"
         inkscape:connector-curvature="0" />
      <path
         style="fill:#ffffff;fill-opacity:1;stroke:#c8c8c8;stroke-width:1.34829688;stroke-linejoin:round;stroke-miterlimit:4;stroke-opacity:1;stroke-dasharray:none"
         d="m 481.33047,132.44187 c -2.51118,-3.52663 -7.07443,-14.52205 -7.32202,-17.64285 -0.10464,-1.31895 0.0213,-1.50904 1.08056,-1.63153 1.66051,-0.19202 5.05509,1.64876 8.12672,4.40685 1.42133,1.27625 2.58423,2.17182 2.58423,1.99016 0,-0.18166 -0.70785,-2.51991 -1.57301,-5.19611 -1.59891,-4.94594 -1.90327,-6.87244 -1.15845,-7.33276 0.68451,-0.42305 4.724,8.70318 6.72528,15.19413 1.08182,3.50874 1.24261,6.13235 0.37584,6.13235 -0.7961,0 -4.02445,-3.05843 -8.42061,-7.97742 -2.04347,-2.28649 -3.91575,-4.15725 -4.16063,-4.15725 -0.95855,0 0.21677,3.6161 3.07867,9.47216 1.64,3.35578 2.90964,6.47381 2.82142,6.92896 -0.26,1.34153 -1.12297,1.26687 -2.158,-0.18669 z"
         id="path3126"
         inkscape:connector-curvature="0" />
    </g>
    <path
       inkscape:connector-curvature="0"
       id="path3150"
       d="m 288.49573,-8.1988563 c -2.78505,-7.4053357 1.11401,-13.7818097 8.80473,-14.3991467 3.47504,-0.278944 6.07101,0.57139 8.26733,2.708046 1.51526,1.474099 4.05372,6.227937 4.05437,7.592728 3.1e-4,0.652275 -3.18478,2.6243279 -4.23858,2.6243279 -0.19783,0 -1.31328,-0.7000029 -2.47878,-1.5555619 -4.84351,-3.55546 -9.49755,-2.268465 -12.3266,3.4087109 l -1.10554,2.2185213 -0.97693,-2.5976255 z"
       style="fill:#ffffff;fill-opacity:1;stroke:#c8c8c8;stroke-width:1.34829688;stroke-linejoin:round;stroke-miterlimit:4;stroke-opacity:1;stroke-dasharray:none" />
    <path
       inkscape:connector-curvature="0"
       id="path3152"
       d="m 293.18769,-4.6879875 c -0.6773,-1.6209962 -0.5442,-3.0669674 0.39457,-4.286447 0.99061,-1.2868365 2.74794,-2.2265365 4.16383,-2.2265365 1.42305,0 4.46079,1.695507 4.46079,2.48978 0,0.2373414 -0.7716,0.6221034 -1.71468,0.8550266 -1.37518,0.3396489 -2.01544,0.2615226 -3.23378,-0.3945984 -2.56353,-1.3805523 -3.237,-0.5397595 -2.94679,3.678918 0.13068,1.899703 -0.30028,1.8551697 -1.12394,-0.1161427 z"
       style="fill:#ffffff;fill-opacity:1;stroke:#c8c8c8;stroke-width:1.34829688;stroke-linejoin:round;stroke-miterlimit:4;stroke-opacity:1;stroke-dasharray:none" />
  </g>
  <text
     xml:space="preserve"
     style="font-size:58.17641068px;font-style:normal;font-weight:normal;line-height:125%;letter-spacing:0px;word-spacing:0px;fill:#ff7b00;fill-opacity:1;stroke:none;font-family:Sans"
     x="-3.1071241"
     y="211.32497"
     id="text3187"
     sodipodi:linespacing="125%"
     transform="scale(0.94402792,1.0592907)"><tspan
       sodipodi:role="line"
       id="tspan3189"
       x="-3.1071241"
       y="211.32497">news</tspan></text>
  <text
     xml:space="preserve"
     style="font-size:60.86795425px;font-style:normal;font-weight:normal;line-height:125%;letter-spacing:0px;word-spacing:0px;fill:#007eff;fill-opacity:1;stroke:none;font-family:Sans"
     x="147.82793"
     y="221.20956"
     id="text3191"
     sodipodi:linespacing="125%"
     transform="scale(0.98261709,1.0176904)"><tspan
       sodipodi:role="line"
       id="tspan3193"
       x="147.82793"
       y="221.20956">Fish</tspan></text>
</svg>
